<?xml version="1.0" encoding="utf-8" standalone="no"?>
<!DOCTYPE svg PUBLIC "-//W3C//DTD SVG 1.1//EN"
  "http://www.w3.org/Graphics/SVG/1.1/DTD/svg11.dtd">
<!-- Created with matplotlib (https://matplotlib.org/) -->
<svg height="494.453458pt" version="1.1" viewBox="0 0 1503.751875 494.453458" width="1503.751875pt" xmlns="http://www.w3.org/2000/svg" xmlns:xlink="http://www.w3.org/1999/xlink">
 <defs>
  <style type="text/css">
*{stroke-linecap:butt;stroke-linejoin:round;}
  </style>
 </defs>
 <g id="figure_1">
  <g id="patch_1">
   <path d="M 0 494.453458 
L 1503.751875 494.453458 
L 1503.751875 0 
L 0 0 
z
" style="fill:none;"/>
  </g>
  <g id="axes_1">
   <g id="patch_2">
    <path d="M 63.526875 400.597501 
L 488.796936 400.597501 
L 488.796936 26.084063 
L 63.526875 26.084063 
z
" style="fill:#ffffff;"/>
   </g>
   <g id="matplotlib.axis_1">
    <g id="xtick_1">
     <g id="line2d_1">
      <defs>
       <path d="M 0 0 
L 0 9 
" id="me34bade861" style="stroke:#262626;stroke-width:1.875;"/>
      </defs>
      <g>
       <use style="fill:#262626;stroke:#262626;stroke-width:1.875;" x="82.857332" xlink:href="#me34bade861" y="400.597501"/>
      </g>
     </g>
     <g id="text_1">
      <!-- 0 -->
      <defs>
       <path d="M 4.15625 35.296875 
Q 4.15625 48 6.765625 55.734375 
Q 9.375 63.484375 14.515625 67.671875 
Q 19.671875 71.875 27.484375 71.875 
Q 33.25 71.875 37.59375 69.546875 
Q 41.9375 67.234375 44.765625 62.859375 
Q 47.609375 58.5 49.21875 52.21875 
Q 50.828125 45.953125 50.828125 35.296875 
Q 50.828125 22.703125 48.234375 14.96875 
Q 45.65625 7.234375 40.5 3 
Q 35.359375 -1.21875 27.484375 -1.21875 
Q 17.140625 -1.21875 11.234375 6.203125 
Q 4.15625 15.140625 4.15625 35.296875 
z
M 13.1875 35.296875 
Q 13.1875 17.671875 17.3125 11.828125 
Q 21.4375 6 27.484375 6 
Q 33.546875 6 37.671875 11.859375 
Q 41.796875 17.71875 41.796875 35.296875 
Q 41.796875 52.984375 37.671875 58.78125 
Q 33.546875 64.59375 27.390625 64.59375 
Q 21.34375 64.59375 17.71875 59.46875 
Q 13.1875 52.9375 13.1875 35.296875 
z
" id="ArialMT-48"/>
      </defs>
      <g style="fill:#262626;" transform="translate(78.269559 424.907891)scale(0.165 -0.165)">
       <use xlink:href="#ArialMT-48"/>
      </g>
     </g>
    </g>
    <g id="xtick_2">
     <g id="line2d_2">
      <g>
       <use style="fill:#262626;stroke:#262626;stroke-width:1.875;" x="168.770476" xlink:href="#me34bade861" y="400.597501"/>
      </g>
     </g>
     <g id="text_2">
      <!-- 2 -->
      <defs>
       <path d="M 50.34375 8.453125 
L 50.34375 0 
L 3.03125 0 
Q 2.9375 3.171875 4.046875 6.109375 
Q 5.859375 10.9375 9.828125 15.625 
Q 13.8125 20.3125 21.34375 26.46875 
Q 33.015625 36.03125 37.109375 41.625 
Q 41.21875 47.21875 41.21875 52.203125 
Q 41.21875 57.421875 37.46875 61 
Q 33.734375 64.59375 27.734375 64.59375 
Q 21.390625 64.59375 17.578125 60.78125 
Q 13.765625 56.984375 13.71875 50.25 
L 4.6875 51.171875 
Q 5.609375 61.28125 11.65625 66.578125 
Q 17.71875 71.875 27.9375 71.875 
Q 38.234375 71.875 44.234375 66.15625 
Q 50.25 60.453125 50.25 52 
Q 50.25 47.703125 48.484375 43.546875 
Q 46.734375 39.40625 42.65625 34.8125 
Q 38.578125 30.21875 29.109375 22.21875 
Q 21.1875 15.578125 18.9375 13.203125 
Q 16.703125 10.84375 15.234375 8.453125 
z
" id="ArialMT-50"/>
      </defs>
      <g style="fill:#262626;" transform="translate(164.182703 424.907891)scale(0.165 -0.165)">
       <use xlink:href="#ArialMT-50"/>
      </g>
     </g>
    </g>
    <g id="xtick_3">
     <g id="line2d_3">
      <g>
       <use style="fill:#262626;stroke:#262626;stroke-width:1.875;" x="254.68362" xlink:href="#me34bade861" y="400.597501"/>
      </g>
     </g>
     <g id="text_3">
      <!-- 4 -->
      <defs>
       <path d="M 32.328125 0 
L 32.328125 17.140625 
L 1.265625 17.140625 
L 1.265625 25.203125 
L 33.9375 71.578125 
L 41.109375 71.578125 
L 41.109375 25.203125 
L 50.78125 25.203125 
L 50.78125 17.140625 
L 41.109375 17.140625 
L 41.109375 0 
z
M 32.328125 25.203125 
L 32.328125 57.46875 
L 9.90625 25.203125 
z
" id="ArialMT-52"/>
      </defs>
      <g style="fill:#262626;" transform="translate(250.095846 424.907891)scale(0.165 -0.165)">
       <use xlink:href="#ArialMT-52"/>
      </g>
     </g>
    </g>
    <g id="xtick_4">
     <g id="line2d_4">
      <g>
       <use style="fill:#262626;stroke:#262626;stroke-width:1.875;" x="340.596763" xlink:href="#me34bade861" y="400.597501"/>
      </g>
     </g>
     <g id="text_4">
      <!-- 6 -->
      <defs>
       <path d="M 49.75 54.046875 
L 41.015625 53.375 
Q 39.84375 58.546875 37.703125 60.890625 
Q 34.125 64.65625 28.90625 64.65625 
Q 24.703125 64.65625 21.53125 62.3125 
Q 17.390625 59.28125 14.984375 53.46875 
Q 12.59375 47.65625 12.5 36.921875 
Q 15.671875 41.75 20.265625 44.09375 
Q 24.859375 46.4375 29.890625 46.4375 
Q 38.671875 46.4375 44.84375 39.96875 
Q 51.03125 33.5 51.03125 23.25 
Q 51.03125 16.5 48.125 10.71875 
Q 45.21875 4.9375 40.140625 1.859375 
Q 35.0625 -1.21875 28.609375 -1.21875 
Q 17.625 -1.21875 10.6875 6.859375 
Q 3.765625 14.9375 3.765625 33.5 
Q 3.765625 54.25 11.421875 63.671875 
Q 18.109375 71.875 29.4375 71.875 
Q 37.890625 71.875 43.28125 67.140625 
Q 48.6875 62.40625 49.75 54.046875 
z
M 13.875 23.1875 
Q 13.875 18.65625 15.796875 14.5 
Q 17.71875 10.359375 21.1875 8.171875 
Q 24.65625 6 28.46875 6 
Q 34.03125 6 38.03125 10.484375 
Q 42.046875 14.984375 42.046875 22.703125 
Q 42.046875 30.125 38.078125 34.390625 
Q 34.125 38.671875 28.125 38.671875 
Q 22.171875 38.671875 18.015625 34.390625 
Q 13.875 30.125 13.875 23.1875 
z
" id="ArialMT-54"/>
      </defs>
      <g style="fill:#262626;" transform="translate(336.00899 424.907891)scale(0.165 -0.165)">
       <use xlink:href="#ArialMT-54"/>
      </g>
     </g>
    </g>
    <g id="xtick_5">
     <g id="line2d_5">
      <g>
       <use style="fill:#262626;stroke:#262626;stroke-width:1.875;" x="426.509907" xlink:href="#me34bade861" y="400.597501"/>
      </g>
     </g>
     <g id="text_5">
      <!-- 8 -->
      <defs>
       <path d="M 17.671875 38.8125 
Q 12.203125 40.828125 9.5625 44.53125 
Q 6.9375 48.25 6.9375 53.421875 
Q 6.9375 61.234375 12.546875 66.546875 
Q 18.171875 71.875 27.484375 71.875 
Q 36.859375 71.875 42.578125 66.421875 
Q 48.296875 60.984375 48.296875 53.171875 
Q 48.296875 48.1875 45.671875 44.5 
Q 43.0625 40.828125 37.75 38.8125 
Q 44.34375 36.671875 47.78125 31.875 
Q 51.21875 27.09375 51.21875 20.453125 
Q 51.21875 11.28125 44.71875 5.03125 
Q 38.234375 -1.21875 27.640625 -1.21875 
Q 17.046875 -1.21875 10.546875 5.046875 
Q 4.046875 11.328125 4.046875 20.703125 
Q 4.046875 27.6875 7.59375 32.390625 
Q 11.140625 37.109375 17.671875 38.8125 
z
M 15.921875 53.71875 
Q 15.921875 48.640625 19.1875 45.40625 
Q 22.46875 42.1875 27.6875 42.1875 
Q 32.765625 42.1875 36.015625 45.375 
Q 39.265625 48.578125 39.265625 53.21875 
Q 39.265625 58.0625 35.90625 61.359375 
Q 32.5625 64.65625 27.59375 64.65625 
Q 22.5625 64.65625 19.234375 61.421875 
Q 15.921875 58.203125 15.921875 53.71875 
z
M 13.09375 20.65625 
Q 13.09375 16.890625 14.875 13.375 
Q 16.65625 9.859375 20.171875 7.921875 
Q 23.6875 6 27.734375 6 
Q 34.03125 6 38.125 10.046875 
Q 42.234375 14.109375 42.234375 20.359375 
Q 42.234375 26.703125 38.015625 30.859375 
Q 33.796875 35.015625 27.4375 35.015625 
Q 21.234375 35.015625 17.15625 30.90625 
Q 13.09375 26.8125 13.09375 20.65625 
z
" id="ArialMT-56"/>
      </defs>
      <g style="fill:#262626;" transform="translate(421.922133 424.907891)scale(0.165 -0.165)">
       <use xlink:href="#ArialMT-56"/>
      </g>
     </g>
    </g>
    <g id="text_6">
     <!-- Mutations per molecule -->
     <defs>
      <path d="M 7.421875 0 
L 7.421875 71.578125 
L 21.6875 71.578125 
L 38.625 20.90625 
Q 40.96875 13.8125 42.046875 10.296875 
Q 43.265625 14.203125 45.84375 21.78125 
L 62.984375 71.578125 
L 75.734375 71.578125 
L 75.734375 0 
L 66.609375 0 
L 66.609375 59.90625 
L 45.796875 0 
L 37.25 0 
L 16.546875 60.9375 
L 16.546875 0 
z
" id="ArialMT-77"/>
      <path d="M 40.578125 0 
L 40.578125 7.625 
Q 34.515625 -1.171875 24.125 -1.171875 
Q 19.53125 -1.171875 15.546875 0.578125 
Q 11.578125 2.34375 9.640625 5 
Q 7.71875 7.671875 6.9375 11.53125 
Q 6.390625 14.109375 6.390625 19.734375 
L 6.390625 51.859375 
L 15.1875 51.859375 
L 15.1875 23.09375 
Q 15.1875 16.21875 15.71875 13.8125 
Q 16.546875 10.359375 19.234375 8.375 
Q 21.921875 6.390625 25.875 6.390625 
Q 29.828125 6.390625 33.296875 8.421875 
Q 36.765625 10.453125 38.203125 13.9375 
Q 39.65625 17.4375 39.65625 24.078125 
L 39.65625 51.859375 
L 48.4375 51.859375 
L 48.4375 0 
z
" id="ArialMT-117"/>
      <path d="M 25.78125 7.859375 
L 27.046875 0.09375 
Q 23.34375 -0.6875 20.40625 -0.6875 
Q 15.625 -0.6875 12.984375 0.828125 
Q 10.359375 2.34375 9.28125 4.8125 
Q 8.203125 7.28125 8.203125 15.1875 
L 8.203125 45.015625 
L 1.765625 45.015625 
L 1.765625 51.859375 
L 8.203125 51.859375 
L 8.203125 64.703125 
L 16.9375 69.96875 
L 16.9375 51.859375 
L 25.78125 51.859375 
L 25.78125 45.015625 
L 16.9375 45.015625 
L 16.9375 14.703125 
Q 16.9375 10.9375 17.40625 9.859375 
Q 17.875 8.796875 18.921875 8.15625 
Q 19.96875 7.515625 21.921875 7.515625 
Q 23.390625 7.515625 25.78125 7.859375 
z
" id="ArialMT-116"/>
      <path d="M 40.4375 6.390625 
Q 35.546875 2.25 31.03125 0.53125 
Q 26.515625 -1.171875 21.34375 -1.171875 
Q 12.796875 -1.171875 8.203125 3 
Q 3.609375 7.171875 3.609375 13.671875 
Q 3.609375 17.484375 5.34375 20.625 
Q 7.078125 23.78125 9.890625 25.6875 
Q 12.703125 27.59375 16.21875 28.5625 
Q 18.796875 29.25 24.03125 29.890625 
Q 34.671875 31.15625 39.703125 32.90625 
Q 39.75 34.71875 39.75 35.203125 
Q 39.75 40.578125 37.25 42.78125 
Q 33.890625 45.75 27.25 45.75 
Q 21.046875 45.75 18.09375 43.578125 
Q 15.140625 41.40625 13.71875 35.890625 
L 5.125 37.0625 
Q 6.296875 42.578125 8.984375 45.96875 
Q 11.671875 49.359375 16.75 51.1875 
Q 21.828125 53.03125 28.515625 53.03125 
Q 35.15625 53.03125 39.296875 51.46875 
Q 43.453125 49.90625 45.40625 47.53125 
Q 47.359375 45.171875 48.140625 41.546875 
Q 48.578125 39.3125 48.578125 33.453125 
L 48.578125 21.734375 
Q 48.578125 9.46875 49.140625 6.21875 
Q 49.703125 2.984375 51.375 0 
L 42.1875 0 
Q 40.828125 2.734375 40.4375 6.390625 
z
M 39.703125 26.03125 
Q 34.90625 24.078125 25.34375 22.703125 
Q 19.921875 21.921875 17.671875 20.9375 
Q 15.4375 19.96875 14.203125 18.09375 
Q 12.984375 16.21875 12.984375 13.921875 
Q 12.984375 10.40625 15.640625 8.0625 
Q 18.3125 5.71875 23.4375 5.71875 
Q 28.515625 5.71875 32.46875 7.9375 
Q 36.421875 10.15625 38.28125 14.015625 
Q 39.703125 17 39.703125 22.796875 
z
" id="ArialMT-97"/>
      <path d="M 6.640625 61.46875 
L 6.640625 71.578125 
L 15.4375 71.578125 
L 15.4375 61.46875 
z
M 6.640625 0 
L 6.640625 51.859375 
L 15.4375 51.859375 
L 15.4375 0 
z
" id="ArialMT-105"/>
      <path d="M 3.328125 25.921875 
Q 3.328125 40.328125 11.328125 47.265625 
Q 18.015625 53.03125 27.640625 53.03125 
Q 38.328125 53.03125 45.109375 46.015625 
Q 51.90625 39.015625 51.90625 26.65625 
Q 51.90625 16.65625 48.90625 10.90625 
Q 45.90625 5.171875 40.15625 2 
Q 34.421875 -1.171875 27.640625 -1.171875 
Q 16.75 -1.171875 10.03125 5.8125 
Q 3.328125 12.796875 3.328125 25.921875 
z
M 12.359375 25.921875 
Q 12.359375 15.96875 16.703125 11.015625 
Q 21.046875 6.0625 27.640625 6.0625 
Q 34.1875 6.0625 38.53125 11.03125 
Q 42.875 16.015625 42.875 26.21875 
Q 42.875 35.84375 38.5 40.796875 
Q 34.125 45.75 27.640625 45.75 
Q 21.046875 45.75 16.703125 40.8125 
Q 12.359375 35.890625 12.359375 25.921875 
z
" id="ArialMT-111"/>
      <path d="M 6.59375 0 
L 6.59375 51.859375 
L 14.5 51.859375 
L 14.5 44.484375 
Q 20.21875 53.03125 31 53.03125 
Q 35.6875 53.03125 39.625 51.34375 
Q 43.5625 49.65625 45.515625 46.921875 
Q 47.46875 44.1875 48.25 40.4375 
Q 48.734375 37.984375 48.734375 31.890625 
L 48.734375 0 
L 39.9375 0 
L 39.9375 31.546875 
Q 39.9375 36.921875 38.90625 39.578125 
Q 37.890625 42.234375 35.28125 43.8125 
Q 32.671875 45.40625 29.15625 45.40625 
Q 23.53125 45.40625 19.453125 41.84375 
Q 15.375 38.28125 15.375 28.328125 
L 15.375 0 
z
" id="ArialMT-110"/>
      <path d="M 3.078125 15.484375 
L 11.765625 16.84375 
Q 12.5 11.625 15.84375 8.84375 
Q 19.1875 6.0625 25.203125 6.0625 
Q 31.25 6.0625 34.171875 8.515625 
Q 37.109375 10.984375 37.109375 14.3125 
Q 37.109375 17.28125 34.515625 19 
Q 32.71875 20.171875 25.53125 21.96875 
Q 15.875 24.421875 12.140625 26.203125 
Q 8.40625 27.984375 6.46875 31.125 
Q 4.546875 34.28125 4.546875 38.09375 
Q 4.546875 41.546875 6.125 44.5 
Q 7.71875 47.46875 10.453125 49.421875 
Q 12.5 50.921875 16.03125 51.96875 
Q 19.578125 53.03125 23.640625 53.03125 
Q 29.734375 53.03125 34.34375 51.265625 
Q 38.96875 49.515625 41.15625 46.5 
Q 43.359375 43.5 44.1875 38.484375 
L 35.59375 37.3125 
Q 35.015625 41.3125 32.203125 43.546875 
Q 29.390625 45.796875 24.265625 45.796875 
Q 18.21875 45.796875 15.625 43.796875 
Q 13.03125 41.796875 13.03125 39.109375 
Q 13.03125 37.40625 14.109375 36.03125 
Q 15.1875 34.625 17.484375 33.6875 
Q 18.796875 33.203125 25.25 31.453125 
Q 34.578125 28.953125 38.25 27.359375 
Q 41.9375 25.78125 44.03125 22.75 
Q 46.140625 19.734375 46.140625 15.234375 
Q 46.140625 10.84375 43.578125 6.953125 
Q 41.015625 3.078125 36.171875 0.953125 
Q 31.34375 -1.171875 25.25 -1.171875 
Q 15.140625 -1.171875 9.84375 3.03125 
Q 4.546875 7.234375 3.078125 15.484375 
z
" id="ArialMT-115"/>
      <path id="ArialMT-32"/>
      <path d="M 6.59375 -19.875 
L 6.59375 51.859375 
L 14.59375 51.859375 
L 14.59375 45.125 
Q 17.4375 49.078125 21 51.046875 
Q 24.5625 53.03125 29.640625 53.03125 
Q 36.28125 53.03125 41.359375 49.609375 
Q 46.4375 46.1875 49.015625 39.953125 
Q 51.609375 33.734375 51.609375 26.3125 
Q 51.609375 18.359375 48.75 11.984375 
Q 45.90625 5.609375 40.453125 2.21875 
Q 35.015625 -1.171875 29 -1.171875 
Q 24.609375 -1.171875 21.109375 0.6875 
Q 17.625 2.546875 15.375 5.375 
L 15.375 -19.875 
z
M 14.546875 25.640625 
Q 14.546875 15.625 18.59375 10.84375 
Q 22.65625 6.0625 28.421875 6.0625 
Q 34.28125 6.0625 38.453125 11.015625 
Q 42.625 15.96875 42.625 26.375 
Q 42.625 36.28125 38.546875 41.203125 
Q 34.46875 46.140625 28.8125 46.140625 
Q 23.1875 46.140625 18.859375 40.890625 
Q 14.546875 35.640625 14.546875 25.640625 
z
" id="ArialMT-112"/>
      <path d="M 42.09375 16.703125 
L 51.171875 15.578125 
Q 49.03125 7.625 43.21875 3.21875 
Q 37.40625 -1.171875 28.375 -1.171875 
Q 17 -1.171875 10.328125 5.828125 
Q 3.65625 12.84375 3.65625 25.484375 
Q 3.65625 38.578125 10.390625 45.796875 
Q 17.140625 53.03125 27.875 53.03125 
Q 38.28125 53.03125 44.875 45.953125 
Q 51.46875 38.875 51.46875 26.03125 
Q 51.46875 25.25 51.421875 23.6875 
L 12.75 23.6875 
Q 13.234375 15.140625 17.578125 10.59375 
Q 21.921875 6.0625 28.421875 6.0625 
Q 33.25 6.0625 36.671875 8.59375 
Q 40.09375 11.140625 42.09375 16.703125 
z
M 13.234375 30.90625 
L 42.1875 30.90625 
Q 41.609375 37.453125 38.875 40.71875 
Q 34.671875 45.796875 27.984375 45.796875 
Q 21.921875 45.796875 17.796875 41.75 
Q 13.671875 37.703125 13.234375 30.90625 
z
" id="ArialMT-101"/>
      <path d="M 6.5 0 
L 6.5 51.859375 
L 14.40625 51.859375 
L 14.40625 44 
Q 17.4375 49.515625 20 51.265625 
Q 22.5625 53.03125 25.640625 53.03125 
Q 30.078125 53.03125 34.671875 50.203125 
L 31.640625 42.046875 
Q 28.421875 43.953125 25.203125 43.953125 
Q 22.3125 43.953125 20.015625 42.21875 
Q 17.71875 40.484375 16.75 37.40625 
Q 15.28125 32.71875 15.28125 27.15625 
L 15.28125 0 
z
" id="ArialMT-114"/>
      <path d="M 6.59375 0 
L 6.59375 51.859375 
L 14.453125 51.859375 
L 14.453125 44.578125 
Q 16.890625 48.390625 20.9375 50.703125 
Q 25 53.03125 30.171875 53.03125 
Q 35.9375 53.03125 39.625 50.640625 
Q 43.3125 48.25 44.828125 43.953125 
Q 50.984375 53.03125 60.84375 53.03125 
Q 68.5625 53.03125 72.703125 48.75 
Q 76.859375 44.484375 76.859375 35.59375 
L 76.859375 0 
L 68.109375 0 
L 68.109375 32.671875 
Q 68.109375 37.9375 67.25 40.25 
Q 66.40625 42.578125 64.15625 43.984375 
Q 61.921875 45.40625 58.890625 45.40625 
Q 53.421875 45.40625 49.796875 41.765625 
Q 46.1875 38.140625 46.1875 30.125 
L 46.1875 0 
L 37.40625 0 
L 37.40625 33.6875 
Q 37.40625 39.546875 35.25 42.46875 
Q 33.109375 45.40625 28.21875 45.40625 
Q 24.515625 45.40625 21.359375 43.453125 
Q 18.21875 41.5 16.796875 37.734375 
Q 15.375 33.984375 15.375 26.90625 
L 15.375 0 
z
" id="ArialMT-109"/>
      <path d="M 6.390625 0 
L 6.390625 71.578125 
L 15.1875 71.578125 
L 15.1875 0 
z
" id="ArialMT-108"/>
      <path d="M 40.4375 19 
L 49.078125 17.875 
Q 47.65625 8.9375 41.8125 3.875 
Q 35.984375 -1.171875 27.484375 -1.171875 
Q 16.84375 -1.171875 10.375 5.78125 
Q 3.90625 12.75 3.90625 25.734375 
Q 3.90625 34.125 6.6875 40.421875 
Q 9.46875 46.734375 15.15625 49.875 
Q 20.84375 53.03125 27.546875 53.03125 
Q 35.984375 53.03125 41.359375 48.75 
Q 46.734375 44.484375 48.25 36.625 
L 39.703125 35.296875 
Q 38.484375 40.53125 35.375 43.15625 
Q 32.28125 45.796875 27.875 45.796875 
Q 21.234375 45.796875 17.078125 41.03125 
Q 12.9375 36.28125 12.9375 25.984375 
Q 12.9375 15.53125 16.9375 10.796875 
Q 20.953125 6.0625 27.390625 6.0625 
Q 32.5625 6.0625 36.03125 9.234375 
Q 39.5 12.40625 40.4375 19 
z
" id="ArialMT-99"/>
     </defs>
     <g style="fill:#262626;" transform="translate(183.122999 445.071329)scale(0.18 -0.18)">
      <use xlink:href="#ArialMT-77"/>
      <use x="83.300781" xlink:href="#ArialMT-117"/>
      <use x="138.916016" xlink:href="#ArialMT-116"/>
      <use x="166.699219" xlink:href="#ArialMT-97"/>
      <use x="222.314453" xlink:href="#ArialMT-116"/>
      <use x="250.097656" xlink:href="#ArialMT-105"/>
      <use x="272.314453" xlink:href="#ArialMT-111"/>
      <use x="327.929688" xlink:href="#ArialMT-110"/>
      <use x="383.544922" xlink:href="#ArialMT-115"/>
      <use x="433.544922" xlink:href="#ArialMT-32"/>
      <use x="461.328125" xlink:href="#ArialMT-112"/>
      <use x="516.943359" xlink:href="#ArialMT-101"/>
      <use x="572.558594" xlink:href="#ArialMT-114"/>
      <use x="605.859375" xlink:href="#ArialMT-32"/>
      <use x="633.642578" xlink:href="#ArialMT-109"/>
      <use x="716.943359" xlink:href="#ArialMT-111"/>
      <use x="772.558594" xlink:href="#ArialMT-108"/>
      <use x="794.775391" xlink:href="#ArialMT-101"/>
      <use x="850.390625" xlink:href="#ArialMT-99"/>
      <use x="900.390625" xlink:href="#ArialMT-117"/>
      <use x="956.005859" xlink:href="#ArialMT-108"/>
      <use x="978.222656" xlink:href="#ArialMT-101"/>
     </g>
    </g>
   </g>
   <g id="matplotlib.axis_2">
    <g id="ytick_1">
     <g id="line2d_6">
      <defs>
       <path d="M 0 0 
L -9 0 
" id="me53c32c96f" style="stroke:#262626;stroke-width:1.875;"/>
      </defs>
      <g>
       <use style="fill:#262626;stroke:#262626;stroke-width:1.875;" x="63.526875" xlink:href="#me53c32c96f" y="383.98661"/>
      </g>
     </g>
     <g id="text_7">
      <!-- 0.0 -->
      <defs>
       <path d="M 9.078125 0 
L 9.078125 10.015625 
L 19.09375 10.015625 
L 19.09375 0 
z
" id="ArialMT-46"/>
      </defs>
      <g style="fill:#262626;" transform="translate(28.091875 389.891806)scale(0.165 -0.165)">
       <use xlink:href="#ArialMT-48"/>
       <use x="55.615234" xlink:href="#ArialMT-46"/>
       <use x="83.398438" xlink:href="#ArialMT-48"/>
      </g>
     </g>
    </g>
    <g id="ytick_2">
     <g id="line2d_7">
      <g>
       <use style="fill:#262626;stroke:#262626;stroke-width:1.875;" x="63.526875" xlink:href="#me53c32c96f" y="308.168955"/>
      </g>
     </g>
     <g id="text_8">
      <!-- 0.1 -->
      <defs>
       <path d="M 37.25 0 
L 28.46875 0 
L 28.46875 56 
Q 25.296875 52.984375 20.140625 49.953125 
Q 14.984375 46.921875 10.890625 45.40625 
L 10.890625 53.90625 
Q 18.265625 57.375 23.78125 62.296875 
Q 29.296875 67.234375 31.59375 71.875 
L 37.25 71.875 
z
" id="ArialMT-49"/>
      </defs>
      <g style="fill:#262626;" transform="translate(28.091875 314.074151)scale(0.165 -0.165)">
       <use xlink:href="#ArialMT-48"/>
       <use x="55.615234" xlink:href="#ArialMT-46"/>
       <use x="83.398438" xlink:href="#ArialMT-49"/>
      </g>
     </g>
    </g>
    <g id="ytick_3">
     <g id="line2d_8">
      <g>
       <use style="fill:#262626;stroke:#262626;stroke-width:1.875;" x="63.526875" xlink:href="#me53c32c96f" y="232.3513"/>
      </g>
     </g>
     <g id="text_9">
      <!-- 0.2 -->
      <g style="fill:#262626;" transform="translate(28.091875 238.256496)scale(0.165 -0.165)">
       <use xlink:href="#ArialMT-48"/>
       <use x="55.615234" xlink:href="#ArialMT-46"/>
       <use x="83.398438" xlink:href="#ArialMT-50"/>
      </g>
     </g>
    </g>
    <g id="ytick_4">
     <g id="line2d_9">
      <g>
       <use style="fill:#262626;stroke:#262626;stroke-width:1.875;" x="63.526875" xlink:href="#me53c32c96f" y="156.533645"/>
      </g>
     </g>
     <g id="text_10">
      <!-- 0.3 -->
      <defs>
       <path d="M 4.203125 18.890625 
L 12.984375 20.0625 
Q 14.5 12.59375 18.140625 9.296875 
Q 21.78125 6 27 6 
Q 33.203125 6 37.46875 10.296875 
Q 41.75 14.59375 41.75 20.953125 
Q 41.75 27 37.796875 30.921875 
Q 33.84375 34.859375 27.734375 34.859375 
Q 25.25 34.859375 21.53125 33.890625 
L 22.515625 41.609375 
Q 23.390625 41.5 23.921875 41.5 
Q 29.546875 41.5 34.03125 44.421875 
Q 38.53125 47.359375 38.53125 53.46875 
Q 38.53125 58.296875 35.25 61.46875 
Q 31.984375 64.65625 26.8125 64.65625 
Q 21.6875 64.65625 18.265625 61.421875 
Q 14.84375 58.203125 13.875 51.765625 
L 5.078125 53.328125 
Q 6.6875 62.15625 12.390625 67.015625 
Q 18.109375 71.875 26.609375 71.875 
Q 32.46875 71.875 37.390625 69.359375 
Q 42.328125 66.84375 44.9375 62.5 
Q 47.5625 58.15625 47.5625 53.265625 
Q 47.5625 48.640625 45.0625 44.828125 
Q 42.578125 41.015625 37.703125 38.765625 
Q 44.046875 37.3125 47.5625 32.6875 
Q 51.078125 28.078125 51.078125 21.140625 
Q 51.078125 11.765625 44.234375 5.25 
Q 37.40625 -1.265625 26.953125 -1.265625 
Q 17.53125 -1.265625 11.296875 4.34375 
Q 5.078125 9.96875 4.203125 18.890625 
z
" id="ArialMT-51"/>
      </defs>
      <g style="fill:#262626;" transform="translate(28.091875 162.438841)scale(0.165 -0.165)">
       <use xlink:href="#ArialMT-48"/>
       <use x="55.615234" xlink:href="#ArialMT-46"/>
       <use x="83.398438" xlink:href="#ArialMT-51"/>
      </g>
     </g>
    </g>
    <g id="ytick_5">
     <g id="line2d_10">
      <g>
       <use style="fill:#262626;stroke:#262626;stroke-width:1.875;" x="63.526875" xlink:href="#me53c32c96f" y="80.71599"/>
      </g>
     </g>
     <g id="text_11">
      <!-- 0.4 -->
      <g style="fill:#262626;" transform="translate(28.091875 86.621186)scale(0.165 -0.165)">
       <use xlink:href="#ArialMT-48"/>
       <use x="55.615234" xlink:href="#ArialMT-46"/>
       <use x="83.398438" xlink:href="#ArialMT-52"/>
      </g>
     </g>
    </g>
    <g id="text_12">
     <!-- Percentage of Reads -->
     <defs>
      <path d="M 7.71875 0 
L 7.71875 71.578125 
L 34.71875 71.578125 
Q 41.84375 71.578125 45.609375 70.90625 
Q 50.875 70.015625 54.4375 67.546875 
Q 58.015625 65.09375 60.1875 60.640625 
Q 62.359375 56.203125 62.359375 50.875 
Q 62.359375 41.75 56.546875 35.421875 
Q 50.734375 29.109375 35.546875 29.109375 
L 17.1875 29.109375 
L 17.1875 0 
z
M 17.1875 37.546875 
L 35.6875 37.546875 
Q 44.875 37.546875 48.734375 40.96875 
Q 52.59375 44.390625 52.59375 50.59375 
Q 52.59375 55.078125 50.3125 58.265625 
Q 48.046875 61.46875 44.34375 62.5 
Q 41.9375 63.140625 35.5 63.140625 
L 17.1875 63.140625 
z
" id="ArialMT-80"/>
      <path d="M 4.984375 -4.296875 
L 13.53125 -5.5625 
Q 14.0625 -9.515625 16.5 -11.328125 
Q 19.78125 -13.765625 25.4375 -13.765625 
Q 31.546875 -13.765625 34.859375 -11.328125 
Q 38.1875 -8.890625 39.359375 -4.5 
Q 40.046875 -1.8125 39.984375 6.78125 
Q 34.234375 0 25.640625 0 
Q 14.9375 0 9.078125 7.71875 
Q 3.21875 15.4375 3.21875 26.21875 
Q 3.21875 33.640625 5.90625 39.90625 
Q 8.59375 46.1875 13.6875 49.609375 
Q 18.796875 53.03125 25.6875 53.03125 
Q 34.859375 53.03125 40.828125 45.609375 
L 40.828125 51.859375 
L 48.921875 51.859375 
L 48.921875 7.03125 
Q 48.921875 -5.078125 46.453125 -10.125 
Q 44 -15.1875 38.640625 -18.109375 
Q 33.296875 -21.046875 25.484375 -21.046875 
Q 16.21875 -21.046875 10.5 -16.875 
Q 4.78125 -12.703125 4.984375 -4.296875 
z
M 12.25 26.859375 
Q 12.25 16.65625 16.296875 11.96875 
Q 20.359375 7.28125 26.46875 7.28125 
Q 32.515625 7.28125 36.609375 11.9375 
Q 40.71875 16.609375 40.71875 26.5625 
Q 40.71875 36.078125 36.5 40.90625 
Q 32.28125 45.75 26.3125 45.75 
Q 20.453125 45.75 16.34375 40.984375 
Q 12.25 36.234375 12.25 26.859375 
z
" id="ArialMT-103"/>
      <path d="M 8.6875 0 
L 8.6875 45.015625 
L 0.921875 45.015625 
L 0.921875 51.859375 
L 8.6875 51.859375 
L 8.6875 57.375 
Q 8.6875 62.59375 9.625 65.140625 
Q 10.890625 68.5625 14.078125 70.671875 
Q 17.28125 72.796875 23.046875 72.796875 
Q 26.765625 72.796875 31.25 71.921875 
L 29.9375 64.265625 
Q 27.203125 64.75 24.75 64.75 
Q 20.75 64.75 19.09375 63.03125 
Q 17.4375 61.328125 17.4375 56.640625 
L 17.4375 51.859375 
L 27.546875 51.859375 
L 27.546875 45.015625 
L 17.4375 45.015625 
L 17.4375 0 
z
" id="ArialMT-102"/>
      <path d="M 7.859375 0 
L 7.859375 71.578125 
L 39.59375 71.578125 
Q 49.171875 71.578125 54.140625 69.640625 
Q 59.125 67.71875 62.109375 62.828125 
Q 65.09375 57.953125 65.09375 52.046875 
Q 65.09375 44.4375 60.15625 39.203125 
Q 55.21875 33.984375 44.921875 32.5625 
Q 48.6875 30.765625 50.640625 29 
Q 54.78125 25.203125 58.5 19.484375 
L 70.953125 0 
L 59.03125 0 
L 49.5625 14.890625 
Q 45.40625 21.34375 42.71875 24.75 
Q 40.046875 28.171875 37.921875 29.53125 
Q 35.796875 30.90625 33.59375 31.453125 
Q 31.984375 31.78125 28.328125 31.78125 
L 17.328125 31.78125 
L 17.328125 0 
z
M 17.328125 39.984375 
L 37.703125 39.984375 
Q 44.1875 39.984375 47.84375 41.328125 
Q 51.515625 42.671875 53.421875 45.625 
Q 55.328125 48.578125 55.328125 52.046875 
Q 55.328125 57.125 51.640625 60.390625 
Q 47.953125 63.671875 39.984375 63.671875 
L 17.328125 63.671875 
z
" id="ArialMT-82"/>
      <path d="M 40.234375 0 
L 40.234375 6.546875 
Q 35.296875 -1.171875 25.734375 -1.171875 
Q 19.53125 -1.171875 14.328125 2.25 
Q 9.125 5.671875 6.265625 11.796875 
Q 3.421875 17.921875 3.421875 25.875 
Q 3.421875 33.640625 6 39.96875 
Q 8.59375 46.296875 13.765625 49.65625 
Q 18.953125 53.03125 25.34375 53.03125 
Q 30.03125 53.03125 33.6875 51.046875 
Q 37.359375 49.078125 39.65625 45.90625 
L 39.65625 71.578125 
L 48.390625 71.578125 
L 48.390625 0 
z
M 12.453125 25.875 
Q 12.453125 15.921875 16.640625 10.984375 
Q 20.84375 6.0625 26.5625 6.0625 
Q 32.328125 6.0625 36.34375 10.765625 
Q 40.375 15.484375 40.375 25.140625 
Q 40.375 35.796875 36.265625 40.765625 
Q 32.171875 45.75 26.171875 45.75 
Q 20.3125 45.75 16.375 40.96875 
Q 12.453125 36.1875 12.453125 25.875 
z
" id="ArialMT-100"/>
     </defs>
     <g style="fill:#262626;" transform="translate(20.303437 297.890157)rotate(-90)scale(0.18 -0.18)">
      <use xlink:href="#ArialMT-80"/>
      <use x="66.699219" xlink:href="#ArialMT-101"/>
      <use x="122.314453" xlink:href="#ArialMT-114"/>
      <use x="155.615234" xlink:href="#ArialMT-99"/>
      <use x="205.615234" xlink:href="#ArialMT-101"/>
      <use x="261.230469" xlink:href="#ArialMT-110"/>
      <use x="316.845703" xlink:href="#ArialMT-116"/>
      <use x="344.628906" xlink:href="#ArialMT-97"/>
      <use x="400.244141" xlink:href="#ArialMT-103"/>
      <use x="455.859375" xlink:href="#ArialMT-101"/>
      <use x="511.474609" xlink:href="#ArialMT-32"/>
      <use x="539.257812" xlink:href="#ArialMT-111"/>
      <use x="594.873047" xlink:href="#ArialMT-102"/>
      <use x="622.65625" xlink:href="#ArialMT-32"/>
      <use x="650.439453" xlink:href="#ArialMT-82"/>
      <use x="722.65625" xlink:href="#ArialMT-101"/>
      <use x="778.271484" xlink:href="#ArialMT-97"/>
      <use x="833.886719" xlink:href="#ArialMT-100"/>
      <use x="889.501953" xlink:href="#ArialMT-115"/>
     </g>
    </g>
   </g>
   <g id="line2d_11">
    <path clip-path="url(#pa6d59a057b)" d="M 82.857332 306.939193 
L 125.813904 322.251327 
L 168.770476 311.025006 
L 211.727048 293.588462 
L 254.68362 276.091264 
L 297.640191 274.628741 
L 340.596763 292.446648 
L 383.553335 321.069329 
L 426.509907 346.768482 
L 469.466479 364.32406 
" style="fill:none;stroke:#a100ff;stroke-linecap:round;stroke-width:2.25;"/>
   </g>
   <g id="line2d_12">
    <path clip-path="url(#pa6d59a057b)" d="M 82.857332 43.107401 
L 125.813904 173.42961 
L 168.770476 278.371101 
L 211.727048 325.279484 
L 254.68362 360.845546 
L 297.640191 373.403224 
L 340.596763 379.040267 
L 383.553335 381.825049 
L 426.509907 383.057086 
L 469.466479 383.574162 
" style="fill:none;stroke:#edc600;stroke-linecap:round;stroke-width:2.25;"/>
   </g>
   <g id="patch_3">
    <path d="M 63.526875 400.597501 
L 63.526875 26.084063 
" style="fill:none;stroke:#262626;stroke-linecap:square;stroke-linejoin:miter;stroke-width:1.875;"/>
   </g>
   <g id="patch_4">
    <path d="M 488.796936 400.597501 
L 488.796936 26.084063 
" style="fill:none;stroke:#262626;stroke-linecap:square;stroke-linejoin:miter;stroke-width:1.875;"/>
   </g>
   <g id="patch_5">
    <path d="M 63.526875 400.597501 
L 488.796936 400.597501 
" style="fill:none;stroke:#262626;stroke-linecap:square;stroke-linejoin:miter;stroke-width:1.875;"/>
   </g>
   <g id="patch_6">
    <path d="M 63.526875 26.084063 
L 488.796936 26.084063 
" style="fill:none;stroke:#262626;stroke-linecap:square;stroke-linejoin:miter;stroke-width:1.875;"/>
   </g>
   <g id="text_13">
    <!-- Mutations per molecule distribution -->
    <defs>
     <path d="M 14.703125 0 
L 6.546875 0 
L 6.546875 71.578125 
L 15.328125 71.578125 
L 15.328125 46.046875 
Q 20.90625 53.03125 29.546875 53.03125 
Q 34.328125 53.03125 38.59375 51.09375 
Q 42.875 49.171875 45.625 45.671875 
Q 48.390625 42.1875 49.953125 37.25 
Q 51.515625 32.328125 51.515625 26.703125 
Q 51.515625 13.375 44.921875 6.09375 
Q 38.328125 -1.171875 29.109375 -1.171875 
Q 19.921875 -1.171875 14.703125 6.5 
z
M 14.59375 26.3125 
Q 14.59375 17 17.140625 12.84375 
Q 21.296875 6.0625 28.375 6.0625 
Q 34.125 6.0625 38.328125 11.0625 
Q 42.53125 16.0625 42.53125 25.984375 
Q 42.53125 36.140625 38.5 40.96875 
Q 34.46875 45.796875 28.765625 45.796875 
Q 23 45.796875 18.796875 40.796875 
Q 14.59375 35.796875 14.59375 26.3125 
z
" id="ArialMT-98"/>
    </defs>
    <g style="fill:#262626;" transform="translate(137.102062 20.084063)scale(0.18 -0.18)">
     <use xlink:href="#ArialMT-77"/>
     <use x="83.300781" xlink:href="#ArialMT-117"/>
     <use x="138.916016" xlink:href="#ArialMT-116"/>
     <use x="166.699219" xlink:href="#ArialMT-97"/>
     <use x="222.314453" xlink:href="#ArialMT-116"/>
     <use x="250.097656" xlink:href="#ArialMT-105"/>
     <use x="272.314453" xlink:href="#ArialMT-111"/>
     <use x="327.929688" xlink:href="#ArialMT-110"/>
     <use x="383.544922" xlink:href="#ArialMT-115"/>
     <use x="433.544922" xlink:href="#ArialMT-32"/>
     <use x="461.328125" xlink:href="#ArialMT-112"/>
     <use x="516.943359" xlink:href="#ArialMT-101"/>
     <use x="572.558594" xlink:href="#ArialMT-114"/>
     <use x="605.859375" xlink:href="#ArialMT-32"/>
     <use x="633.642578" xlink:href="#ArialMT-109"/>
     <use x="716.943359" xlink:href="#ArialMT-111"/>
     <use x="772.558594" xlink:href="#ArialMT-108"/>
     <use x="794.775391" xlink:href="#ArialMT-101"/>
     <use x="850.390625" xlink:href="#ArialMT-99"/>
     <use x="900.390625" xlink:href="#ArialMT-117"/>
     <use x="956.005859" xlink:href="#ArialMT-108"/>
     <use x="978.222656" xlink:href="#ArialMT-101"/>
     <use x="1033.837891" xlink:href="#ArialMT-32"/>
     <use x="1061.621094" xlink:href="#ArialMT-100"/>
     <use x="1117.236328" xlink:href="#ArialMT-105"/>
     <use x="1139.453125" xlink:href="#ArialMT-115"/>
     <use x="1189.453125" xlink:href="#ArialMT-116"/>
     <use x="1217.236328" xlink:href="#ArialMT-114"/>
     <use x="1250.537109" xlink:href="#ArialMT-105"/>
     <use x="1272.753906" xlink:href="#ArialMT-98"/>
     <use x="1328.369141" xlink:href="#ArialMT-117"/>
     <use x="1383.984375" xlink:href="#ArialMT-116"/>
     <use x="1411.767578" xlink:href="#ArialMT-105"/>
     <use x="1433.984375" xlink:href="#ArialMT-111"/>
     <use x="1489.599609" xlink:href="#ArialMT-110"/>
    </g>
   </g>
   <g id="legend_1">
    <g id="patch_7">
     <path d="M 312.027248 93.32875 
L 478.996936 93.32875 
Q 481.796936 93.32875 481.796936 90.52875 
L 481.796936 35.884063 
Q 481.796936 33.084063 478.996936 33.084063 
L 312.027248 33.084063 
Q 309.227248 33.084063 309.227248 35.884063 
L 309.227248 90.52875 
Q 309.227248 93.32875 312.027248 93.32875 
z
" style="fill:#ffffff;opacity:0.8;stroke:#cccccc;stroke-linejoin:miter;stroke-width:1.5;"/>
    </g>
    <g id="text_14">
     <!-- Samples -->
     <defs>
      <path d="M 4.5 23 
L 13.421875 23.78125 
Q 14.0625 18.40625 16.375 14.96875 
Q 18.703125 11.53125 23.578125 9.40625 
Q 28.46875 7.28125 34.578125 7.28125 
Q 39.984375 7.28125 44.140625 8.890625 
Q 48.296875 10.5 50.3125 13.296875 
Q 52.34375 16.109375 52.34375 19.4375 
Q 52.34375 22.796875 50.390625 25.3125 
Q 48.4375 27.828125 43.953125 29.546875 
Q 41.0625 30.671875 31.203125 33.03125 
Q 21.34375 35.40625 17.390625 37.5 
Q 12.25 40.1875 9.734375 44.15625 
Q 7.234375 48.140625 7.234375 53.078125 
Q 7.234375 58.5 10.296875 63.203125 
Q 13.375 67.921875 19.28125 70.359375 
Q 25.203125 72.796875 32.421875 72.796875 
Q 40.375 72.796875 46.453125 70.234375 
Q 52.546875 67.671875 55.8125 62.6875 
Q 59.078125 57.71875 59.328125 51.421875 
L 50.25 50.734375 
Q 49.515625 57.515625 45.28125 60.984375 
Q 41.0625 64.453125 32.8125 64.453125 
Q 24.21875 64.453125 20.28125 61.296875 
Q 16.359375 58.15625 16.359375 53.71875 
Q 16.359375 49.859375 19.140625 47.359375 
Q 21.875 44.875 33.421875 42.265625 
Q 44.96875 39.65625 49.265625 37.703125 
Q 55.515625 34.8125 58.484375 30.390625 
Q 61.46875 25.984375 61.46875 20.21875 
Q 61.46875 14.5 58.203125 9.4375 
Q 54.9375 4.390625 48.796875 1.578125 
Q 42.671875 -1.21875 35.015625 -1.21875 
Q 25.296875 -1.21875 18.71875 1.609375 
Q 12.15625 4.4375 8.421875 10.125 
Q 4.6875 15.828125 4.5 23 
z
" id="ArialMT-83"/>
     </defs>
     <g style="fill:#262626;" transform="translate(376.059748 45.96375)scale(0.1 -0.1)">
      <use xlink:href="#ArialMT-83"/>
      <use x="66.699219" xlink:href="#ArialMT-97"/>
      <use x="122.314453" xlink:href="#ArialMT-109"/>
      <use x="205.615234" xlink:href="#ArialMT-112"/>
      <use x="261.230469" xlink:href="#ArialMT-108"/>
      <use x="283.447266" xlink:href="#ArialMT-101"/>
      <use x="339.0625" xlink:href="#ArialMT-115"/>
     </g>
    </g>
    <g id="line2d_13">
     <path d="M 314.827248 60.242812 
L 342.827248 60.242812 
" style="fill:none;stroke:#a100ff;stroke-linecap:round;stroke-width:2.25;"/>
    </g>
    <g id="line2d_14"/>
    <g id="text_15">
     <!-- example: Modified -->
     <defs>
      <path d="M 0.734375 0 
L 19.671875 26.953125 
L 2.15625 51.859375 
L 13.140625 51.859375 
L 21.09375 39.703125 
Q 23.34375 36.234375 24.703125 33.890625 
Q 26.859375 37.109375 28.65625 39.59375 
L 37.40625 51.859375 
L 47.90625 51.859375 
L 29.984375 27.4375 
L 49.265625 0 
L 38.484375 0 
L 27.828125 16.109375 
L 25 20.453125 
L 11.375 0 
z
" id="ArialMT-120"/>
      <path d="M 9.03125 41.84375 
L 9.03125 51.859375 
L 19.046875 51.859375 
L 19.046875 41.84375 
z
M 9.03125 0 
L 9.03125 10.015625 
L 19.046875 10.015625 
L 19.046875 0 
z
" id="ArialMT-58"/>
     </defs>
     <g style="fill:#262626;" transform="translate(354.027248 65.142812)scale(0.14 -0.14)">
      <use xlink:href="#ArialMT-101"/>
      <use x="55.615234" xlink:href="#ArialMT-120"/>
      <use x="105.615234" xlink:href="#ArialMT-97"/>
      <use x="161.230469" xlink:href="#ArialMT-109"/>
      <use x="244.53125" xlink:href="#ArialMT-112"/>
      <use x="300.146484" xlink:href="#ArialMT-108"/>
      <use x="322.363281" xlink:href="#ArialMT-101"/>
      <use x="377.978516" xlink:href="#ArialMT-58"/>
      <use x="405.761719" xlink:href="#ArialMT-32"/>
      <use x="433.544922" xlink:href="#ArialMT-77"/>
      <use x="516.845703" xlink:href="#ArialMT-111"/>
      <use x="572.460938" xlink:href="#ArialMT-100"/>
      <use x="628.076172" xlink:href="#ArialMT-105"/>
      <use x="650.292969" xlink:href="#ArialMT-102"/>
      <use x="678.076172" xlink:href="#ArialMT-105"/>
      <use x="700.292969" xlink:href="#ArialMT-101"/>
      <use x="755.908203" xlink:href="#ArialMT-100"/>
     </g>
    </g>
    <g id="line2d_15">
     <path d="M 314.827248 80.04625 
L 342.827248 80.04625 
" style="fill:none;stroke:#edc600;stroke-linecap:round;stroke-width:2.25;"/>
    </g>
    <g id="line2d_16"/>
    <g id="text_16">
     <!-- example: Untreated -->
     <defs>
      <path d="M 54.6875 71.578125 
L 64.15625 71.578125 
L 64.15625 30.21875 
Q 64.15625 19.4375 61.71875 13.078125 
Q 59.28125 6.734375 52.90625 2.75 
Q 46.53125 -1.21875 36.1875 -1.21875 
Q 26.125 -1.21875 19.71875 2.25 
Q 13.328125 5.71875 10.59375 12.28125 
Q 7.859375 18.84375 7.859375 30.21875 
L 7.859375 71.578125 
L 17.328125 71.578125 
L 17.328125 30.28125 
Q 17.328125 20.953125 19.0625 16.53125 
Q 20.796875 12.109375 25.015625 9.71875 
Q 29.25 7.328125 35.359375 7.328125 
Q 45.796875 7.328125 50.234375 12.0625 
Q 54.6875 16.796875 54.6875 30.28125 
z
" id="ArialMT-85"/>
     </defs>
     <g style="fill:#262626;" transform="translate(354.027248 84.94625)scale(0.14 -0.14)">
      <use xlink:href="#ArialMT-101"/>
      <use x="55.615234" xlink:href="#ArialMT-120"/>
      <use x="105.615234" xlink:href="#ArialMT-97"/>
      <use x="161.230469" xlink:href="#ArialMT-109"/>
      <use x="244.53125" xlink:href="#ArialMT-112"/>
      <use x="300.146484" xlink:href="#ArialMT-108"/>
      <use x="322.363281" xlink:href="#ArialMT-101"/>
      <use x="377.978516" xlink:href="#ArialMT-58"/>
      <use x="405.761719" xlink:href="#ArialMT-32"/>
      <use x="433.544922" xlink:href="#ArialMT-85"/>
      <use x="505.761719" xlink:href="#ArialMT-110"/>
      <use x="561.376953" xlink:href="#ArialMT-116"/>
      <use x="589.160156" xlink:href="#ArialMT-114"/>
      <use x="622.460938" xlink:href="#ArialMT-101"/>
      <use x="678.076172" xlink:href="#ArialMT-97"/>
      <use x="733.691406" xlink:href="#ArialMT-116"/>
      <use x="761.474609" xlink:href="#ArialMT-101"/>
      <use x="817.089844" xlink:href="#ArialMT-100"/>
     </g>
    </g>
   </g>
  </g>
  <g id="axes_2">
   <g id="patch_8">
    <path d="M 567.404345 400.597501 
L 992.674405 400.597501 
L 992.674405 26.084063 
L 567.404345 26.084063 
z
" style="fill:#ffffff;"/>
   </g>
   <g id="matplotlib.axis_3">
    <g id="xtick_6">
     <g id="line2d_17">
      <g>
       <use style="fill:#262626;stroke:#262626;stroke-width:1.875;" x="602.514767" xlink:href="#me34bade861" y="400.597501"/>
      </g>
     </g>
     <g id="text_17">
      <!-- 0-49 -->
      <defs>
       <path d="M 3.171875 21.484375 
L 3.171875 30.328125 
L 30.171875 30.328125 
L 30.171875 21.484375 
z
" id="ArialMT-45"/>
       <path d="M 5.46875 16.546875 
L 13.921875 17.328125 
Q 14.984375 11.375 18.015625 8.6875 
Q 21.046875 6 25.78125 6 
Q 29.828125 6 32.875 7.859375 
Q 35.9375 9.71875 37.890625 12.8125 
Q 39.84375 15.921875 41.15625 21.1875 
Q 42.484375 26.46875 42.484375 31.9375 
Q 42.484375 32.515625 42.4375 33.6875 
Q 39.796875 29.5 35.234375 26.875 
Q 30.671875 24.265625 25.34375 24.265625 
Q 16.453125 24.265625 10.296875 30.703125 
Q 4.15625 37.15625 4.15625 47.703125 
Q 4.15625 58.59375 10.578125 65.234375 
Q 17 71.875 26.65625 71.875 
Q 33.640625 71.875 39.421875 68.109375 
Q 45.21875 64.359375 48.21875 57.390625 
Q 51.21875 50.4375 51.21875 37.25 
Q 51.21875 23.53125 48.234375 15.40625 
Q 45.265625 7.28125 39.375 3.03125 
Q 33.5 -1.21875 25.59375 -1.21875 
Q 17.1875 -1.21875 11.859375 3.4375 
Q 6.546875 8.109375 5.46875 16.546875 
z
M 41.453125 48.140625 
Q 41.453125 55.71875 37.421875 60.15625 
Q 33.40625 64.59375 27.734375 64.59375 
Q 21.875 64.59375 17.53125 59.8125 
Q 13.1875 55.03125 13.1875 47.40625 
Q 13.1875 40.578125 17.3125 36.296875 
Q 21.4375 32.03125 27.484375 32.03125 
Q 33.59375 32.03125 37.515625 36.296875 
Q 41.453125 40.578125 41.453125 48.140625 
z
" id="ArialMT-57"/>
      </defs>
      <g style="fill:#262626;" transform="translate(576.846791 444.797816)rotate(-45)scale(0.165 -0.165)">
       <use xlink:href="#ArialMT-48"/>
       <use x="55.615234" xlink:href="#ArialMT-45"/>
       <use x="88.916016" xlink:href="#ArialMT-52"/>
       <use x="144.53125" xlink:href="#ArialMT-57"/>
      </g>
     </g>
    </g>
    <g id="xtick_7">
     <g id="line2d_18">
      <g>
       <use style="fill:#262626;stroke:#262626;stroke-width:1.875;" x="641.96468" xlink:href="#me34bade861" y="400.597501"/>
      </g>
     </g>
     <g id="text_18">
      <!-- 50-99 -->
      <defs>
       <path d="M 4.15625 18.75 
L 13.375 19.53125 
Q 14.40625 12.796875 18.140625 9.390625 
Q 21.875 6 27.15625 6 
Q 33.5 6 37.890625 10.78125 
Q 42.28125 15.578125 42.28125 23.484375 
Q 42.28125 31 38.0625 35.34375 
Q 33.84375 39.703125 27 39.703125 
Q 22.75 39.703125 19.328125 37.765625 
Q 15.921875 35.84375 13.96875 32.765625 
L 5.71875 33.84375 
L 12.640625 70.609375 
L 48.25 70.609375 
L 48.25 62.203125 
L 19.671875 62.203125 
L 15.828125 42.96875 
Q 22.265625 47.46875 29.34375 47.46875 
Q 38.71875 47.46875 45.15625 40.96875 
Q 51.609375 34.46875 51.609375 24.265625 
Q 51.609375 14.546875 45.953125 7.46875 
Q 39.0625 -1.21875 27.15625 -1.21875 
Q 17.390625 -1.21875 11.203125 4.25 
Q 5.03125 9.71875 4.15625 18.75 
z
" id="ArialMT-53"/>
      </defs>
      <g style="fill:#262626;" transform="translate(609.808612 451.285907)rotate(-45)scale(0.165 -0.165)">
       <use xlink:href="#ArialMT-53"/>
       <use x="55.615234" xlink:href="#ArialMT-48"/>
       <use x="111.230469" xlink:href="#ArialMT-45"/>
       <use x="144.53125" xlink:href="#ArialMT-57"/>
       <use x="200.146484" xlink:href="#ArialMT-57"/>
      </g>
     </g>
    </g>
    <g id="xtick_8">
     <g id="line2d_19">
      <g>
       <use style="fill:#262626;stroke:#262626;stroke-width:1.875;" x="681.414593" xlink:href="#me34bade861" y="400.597501"/>
      </g>
     </g>
     <g id="text_19">
      <!-- 100-149 -->
      <g style="fill:#262626;" transform="translate(636.282342 464.26209)rotate(-45)scale(0.165 -0.165)">
       <use xlink:href="#ArialMT-49"/>
       <use x="55.615234" xlink:href="#ArialMT-48"/>
       <use x="111.230469" xlink:href="#ArialMT-48"/>
       <use x="166.845703" xlink:href="#ArialMT-45"/>
       <use x="200.146484" xlink:href="#ArialMT-49"/>
       <use x="255.761719" xlink:href="#ArialMT-52"/>
       <use x="311.376953" xlink:href="#ArialMT-57"/>
      </g>
     </g>
    </g>
    <g id="xtick_9">
     <g id="line2d_20">
      <g>
       <use style="fill:#262626;stroke:#262626;stroke-width:1.875;" x="720.864506" xlink:href="#me34bade861" y="400.597501"/>
      </g>
     </g>
     <g id="text_20">
      <!-- 150-199 -->
      <g style="fill:#262626;" transform="translate(675.732255 464.26209)rotate(-45)scale(0.165 -0.165)">
       <use xlink:href="#ArialMT-49"/>
       <use x="55.615234" xlink:href="#ArialMT-53"/>
       <use x="111.230469" xlink:href="#ArialMT-48"/>
       <use x="166.845703" xlink:href="#ArialMT-45"/>
       <use x="200.146484" xlink:href="#ArialMT-49"/>
       <use x="255.761719" xlink:href="#ArialMT-57"/>
       <use x="311.376953" xlink:href="#ArialMT-57"/>
      </g>
     </g>
    </g>
    <g id="xtick_10">
     <g id="line2d_21">
      <g>
       <use style="fill:#262626;stroke:#262626;stroke-width:1.875;" x="760.314419" xlink:href="#me34bade861" y="400.597501"/>
      </g>
     </g>
     <g id="text_21">
      <!-- 200-249 -->
      <g style="fill:#262626;" transform="translate(715.182168 464.26209)rotate(-45)scale(0.165 -0.165)">
       <use xlink:href="#ArialMT-50"/>
       <use x="55.615234" xlink:href="#ArialMT-48"/>
       <use x="111.230469" xlink:href="#ArialMT-48"/>
       <use x="166.845703" xlink:href="#ArialMT-45"/>
       <use x="200.146484" xlink:href="#ArialMT-50"/>
       <use x="255.761719" xlink:href="#ArialMT-52"/>
       <use x="311.376953" xlink:href="#ArialMT-57"/>
      </g>
     </g>
    </g>
    <g id="xtick_11">
     <g id="line2d_22">
      <g>
       <use style="fill:#262626;stroke:#262626;stroke-width:1.875;" x="799.764331" xlink:href="#me34bade861" y="400.597501"/>
      </g>
     </g>
     <g id="text_22">
      <!-- 250-299 -->
      <g style="fill:#262626;" transform="translate(754.632081 464.26209)rotate(-45)scale(0.165 -0.165)">
       <use xlink:href="#ArialMT-50"/>
       <use x="55.615234" xlink:href="#ArialMT-53"/>
       <use x="111.230469" xlink:href="#ArialMT-48"/>
       <use x="166.845703" xlink:href="#ArialMT-45"/>
       <use x="200.146484" xlink:href="#ArialMT-50"/>
       <use x="255.761719" xlink:href="#ArialMT-57"/>
       <use x="311.376953" xlink:href="#ArialMT-57"/>
      </g>
     </g>
    </g>
    <g id="xtick_12">
     <g id="line2d_23">
      <g>
       <use style="fill:#262626;stroke:#262626;stroke-width:1.875;" x="839.214244" xlink:href="#me34bade861" y="400.597501"/>
      </g>
     </g>
     <g id="text_23">
      <!-- 300-349 -->
      <g style="fill:#262626;" transform="translate(794.081994 464.26209)rotate(-45)scale(0.165 -0.165)">
       <use xlink:href="#ArialMT-51"/>
       <use x="55.615234" xlink:href="#ArialMT-48"/>
       <use x="111.230469" xlink:href="#ArialMT-48"/>
       <use x="166.845703" xlink:href="#ArialMT-45"/>
       <use x="200.146484" xlink:href="#ArialMT-51"/>
       <use x="255.761719" xlink:href="#ArialMT-52"/>
       <use x="311.376953" xlink:href="#ArialMT-57"/>
      </g>
     </g>
    </g>
    <g id="xtick_13">
     <g id="line2d_24">
      <g>
       <use style="fill:#262626;stroke:#262626;stroke-width:1.875;" x="878.664157" xlink:href="#me34bade861" y="400.597501"/>
      </g>
     </g>
     <g id="text_24">
      <!-- 350-399 -->
      <g style="fill:#262626;" transform="translate(833.531907 464.26209)rotate(-45)scale(0.165 -0.165)">
       <use xlink:href="#ArialMT-51"/>
       <use x="55.615234" xlink:href="#ArialMT-53"/>
       <use x="111.230469" xlink:href="#ArialMT-48"/>
       <use x="166.845703" xlink:href="#ArialMT-45"/>
       <use x="200.146484" xlink:href="#ArialMT-51"/>
       <use x="255.761719" xlink:href="#ArialMT-57"/>
       <use x="311.376953" xlink:href="#ArialMT-57"/>
      </g>
     </g>
    </g>
    <g id="xtick_14">
     <g id="line2d_25">
      <g>
       <use style="fill:#262626;stroke:#262626;stroke-width:1.875;" x="918.11407" xlink:href="#me34bade861" y="400.597501"/>
      </g>
     </g>
     <g id="text_25">
      <!-- 400-449 -->
      <g style="fill:#262626;" transform="translate(872.98182 464.26209)rotate(-45)scale(0.165 -0.165)">
       <use xlink:href="#ArialMT-52"/>
       <use x="55.615234" xlink:href="#ArialMT-48"/>
       <use x="111.230469" xlink:href="#ArialMT-48"/>
       <use x="166.845703" xlink:href="#ArialMT-45"/>
       <use x="200.146484" xlink:href="#ArialMT-52"/>
       <use x="255.761719" xlink:href="#ArialMT-52"/>
       <use x="311.376953" xlink:href="#ArialMT-57"/>
      </g>
     </g>
    </g>
    <g id="xtick_15">
     <g id="line2d_26">
      <g>
       <use style="fill:#262626;stroke:#262626;stroke-width:1.875;" x="957.563983" xlink:href="#me34bade861" y="400.597501"/>
      </g>
     </g>
     <g id="text_26">
      <!-- 450-499 -->
      <g style="fill:#262626;" transform="translate(912.431733 464.26209)rotate(-45)scale(0.165 -0.165)">
       <use xlink:href="#ArialMT-52"/>
       <use x="55.615234" xlink:href="#ArialMT-53"/>
       <use x="111.230469" xlink:href="#ArialMT-48"/>
       <use x="166.845703" xlink:href="#ArialMT-45"/>
       <use x="200.146484" xlink:href="#ArialMT-52"/>
       <use x="255.761719" xlink:href="#ArialMT-57"/>
       <use x="311.376953" xlink:href="#ArialMT-57"/>
      </g>
     </g>
    </g>
    <g id="text_27">
     <!-- Read Length -->
     <defs>
      <path d="M 7.328125 0 
L 7.328125 71.578125 
L 16.796875 71.578125 
L 16.796875 8.453125 
L 52.046875 8.453125 
L 52.046875 0 
z
" id="ArialMT-76"/>
      <path d="M 6.59375 0 
L 6.59375 71.578125 
L 15.375 71.578125 
L 15.375 45.90625 
Q 21.53125 53.03125 30.90625 53.03125 
Q 36.671875 53.03125 40.921875 50.75 
Q 45.171875 48.484375 47 44.484375 
Q 48.828125 40.484375 48.828125 32.859375 
L 48.828125 0 
L 40.046875 0 
L 40.046875 32.859375 
Q 40.046875 39.453125 37.1875 42.453125 
Q 34.328125 45.453125 29.109375 45.453125 
Q 25.203125 45.453125 21.75 43.421875 
Q 18.3125 41.40625 16.84375 37.9375 
Q 15.375 34.46875 15.375 28.375 
L 15.375 0 
z
" id="ArialMT-104"/>
     </defs>
     <g style="fill:#262626;" transform="translate(728.500313 483.465021)scale(0.18 -0.18)">
      <use xlink:href="#ArialMT-82"/>
      <use x="72.216797" xlink:href="#ArialMT-101"/>
      <use x="127.832031" xlink:href="#ArialMT-97"/>
      <use x="183.447266" xlink:href="#ArialMT-100"/>
      <use x="239.0625" xlink:href="#ArialMT-32"/>
      <use x="266.845703" xlink:href="#ArialMT-76"/>
      <use x="322.460938" xlink:href="#ArialMT-101"/>
      <use x="378.076172" xlink:href="#ArialMT-110"/>
      <use x="433.691406" xlink:href="#ArialMT-103"/>
      <use x="489.306641" xlink:href="#ArialMT-116"/>
      <use x="517.089844" xlink:href="#ArialMT-104"/>
     </g>
    </g>
   </g>
   <g id="matplotlib.axis_4">
    <g id="ytick_6">
     <g id="line2d_27">
      <g>
       <use style="fill:#262626;stroke:#262626;stroke-width:1.875;" x="567.404345" xlink:href="#me53c32c96f" y="400.597501"/>
      </g>
     </g>
     <g id="text_28">
      <!-- 0.0 -->
      <g style="fill:#262626;" transform="translate(531.969345 406.502696)scale(0.165 -0.165)">
       <use xlink:href="#ArialMT-48"/>
       <use x="55.615234" xlink:href="#ArialMT-46"/>
       <use x="83.398438" xlink:href="#ArialMT-48"/>
      </g>
     </g>
    </g>
    <g id="ytick_7">
     <g id="line2d_28">
      <g>
       <use style="fill:#262626;stroke:#262626;stroke-width:1.875;" x="567.404345" xlink:href="#me53c32c96f" y="352.773444"/>
      </g>
     </g>
     <g id="text_29">
      <!-- 0.1 -->
      <g style="fill:#262626;" transform="translate(531.969345 358.678639)scale(0.165 -0.165)">
       <use xlink:href="#ArialMT-48"/>
       <use x="55.615234" xlink:href="#ArialMT-46"/>
       <use x="83.398438" xlink:href="#ArialMT-49"/>
      </g>
     </g>
    </g>
    <g id="ytick_8">
     <g id="line2d_29">
      <g>
       <use style="fill:#262626;stroke:#262626;stroke-width:1.875;" x="567.404345" xlink:href="#me53c32c96f" y="304.949388"/>
      </g>
     </g>
     <g id="text_30">
      <!-- 0.2 -->
      <g style="fill:#262626;" transform="translate(531.969345 310.854583)scale(0.165 -0.165)">
       <use xlink:href="#ArialMT-48"/>
       <use x="55.615234" xlink:href="#ArialMT-46"/>
       <use x="83.398438" xlink:href="#ArialMT-50"/>
      </g>
     </g>
    </g>
    <g id="ytick_9">
     <g id="line2d_30">
      <g>
       <use style="fill:#262626;stroke:#262626;stroke-width:1.875;" x="567.404345" xlink:href="#me53c32c96f" y="257.125331"/>
      </g>
     </g>
     <g id="text_31">
      <!-- 0.3 -->
      <g style="fill:#262626;" transform="translate(531.969345 263.030527)scale(0.165 -0.165)">
       <use xlink:href="#ArialMT-48"/>
       <use x="55.615234" xlink:href="#ArialMT-46"/>
       <use x="83.398438" xlink:href="#ArialMT-51"/>
      </g>
     </g>
    </g>
    <g id="ytick_10">
     <g id="line2d_31">
      <g>
       <use style="fill:#262626;stroke:#262626;stroke-width:1.875;" x="567.404345" xlink:href="#me53c32c96f" y="209.301275"/>
      </g>
     </g>
     <g id="text_32">
      <!-- 0.4 -->
      <g style="fill:#262626;" transform="translate(531.969345 215.20647)scale(0.165 -0.165)">
       <use xlink:href="#ArialMT-48"/>
       <use x="55.615234" xlink:href="#ArialMT-46"/>
       <use x="83.398438" xlink:href="#ArialMT-52"/>
      </g>
     </g>
    </g>
    <g id="ytick_11">
     <g id="line2d_32">
      <g>
       <use style="fill:#262626;stroke:#262626;stroke-width:1.875;" x="567.404345" xlink:href="#me53c32c96f" y="161.477218"/>
      </g>
     </g>
     <g id="text_33">
      <!-- 0.5 -->
      <g style="fill:#262626;" transform="translate(531.969345 167.382414)scale(0.165 -0.165)">
       <use xlink:href="#ArialMT-48"/>
       <use x="55.615234" xlink:href="#ArialMT-46"/>
       <use x="83.398438" xlink:href="#ArialMT-53"/>
      </g>
     </g>
    </g>
    <g id="ytick_12">
     <g id="line2d_33">
      <g>
       <use style="fill:#262626;stroke:#262626;stroke-width:1.875;" x="567.404345" xlink:href="#me53c32c96f" y="113.653162"/>
      </g>
     </g>
     <g id="text_34">
      <!-- 0.6 -->
      <g style="fill:#262626;" transform="translate(531.969345 119.558357)scale(0.165 -0.165)">
       <use xlink:href="#ArialMT-48"/>
       <use x="55.615234" xlink:href="#ArialMT-46"/>
       <use x="83.398438" xlink:href="#ArialMT-54"/>
      </g>
     </g>
    </g>
    <g id="ytick_13">
     <g id="line2d_34">
      <g>
       <use style="fill:#262626;stroke:#262626;stroke-width:1.875;" x="567.404345" xlink:href="#me53c32c96f" y="65.829105"/>
      </g>
     </g>
     <g id="text_35">
      <!-- 0.7 -->
      <defs>
       <path d="M 4.734375 62.203125 
L 4.734375 70.65625 
L 51.078125 70.65625 
L 51.078125 63.8125 
Q 44.234375 56.546875 37.515625 44.484375 
Q 30.8125 32.421875 27.15625 19.671875 
Q 24.515625 10.6875 23.78125 0 
L 14.75 0 
Q 14.890625 8.453125 18.0625 20.40625 
Q 21.234375 32.375 27.171875 43.484375 
Q 33.109375 54.59375 39.796875 62.203125 
z
" id="ArialMT-55"/>
      </defs>
      <g style="fill:#262626;" transform="translate(531.969345 71.734301)scale(0.165 -0.165)">
       <use xlink:href="#ArialMT-48"/>
       <use x="55.615234" xlink:href="#ArialMT-46"/>
       <use x="83.398438" xlink:href="#ArialMT-55"/>
      </g>
     </g>
    </g>
    <g id="text_36">
     <!-- Percentage of Reads -->
     <g style="fill:#262626;" transform="translate(524.180907 297.890157)rotate(-90)scale(0.18 -0.18)">
      <use xlink:href="#ArialMT-80"/>
      <use x="66.699219" xlink:href="#ArialMT-101"/>
      <use x="122.314453" xlink:href="#ArialMT-114"/>
      <use x="155.615234" xlink:href="#ArialMT-99"/>
      <use x="205.615234" xlink:href="#ArialMT-101"/>
      <use x="261.230469" xlink:href="#ArialMT-110"/>
      <use x="316.845703" xlink:href="#ArialMT-116"/>
      <use x="344.628906" xlink:href="#ArialMT-97"/>
      <use x="400.244141" xlink:href="#ArialMT-103"/>
      <use x="455.859375" xlink:href="#ArialMT-101"/>
      <use x="511.474609" xlink:href="#ArialMT-32"/>
      <use x="539.257812" xlink:href="#ArialMT-111"/>
      <use x="594.873047" xlink:href="#ArialMT-102"/>
      <use x="622.65625" xlink:href="#ArialMT-32"/>
      <use x="650.439453" xlink:href="#ArialMT-82"/>
      <use x="722.65625" xlink:href="#ArialMT-101"/>
      <use x="778.271484" xlink:href="#ArialMT-97"/>
      <use x="833.886719" xlink:href="#ArialMT-100"/>
      <use x="889.501953" xlink:href="#ArialMT-115"/>
     </g>
    </g>
   </g>
   <g id="patch_9">
    <path clip-path="url(#p651c949291)" d="M 586.734802 400.597501 
L 602.514767 400.597501 
L 602.514767 351.879612 
L 586.734802 351.879612 
z
" style="fill:#a100ff;stroke:#ffffff;stroke-linejoin:miter;stroke-width:1.5;"/>
   </g>
   <g id="patch_10">
    <path clip-path="url(#p651c949291)" d="M 626.184715 400.597501 
L 641.96468 400.597501 
L 641.96468 371.590776 
L 626.184715 371.590776 
z
" style="fill:#a100ff;stroke:#ffffff;stroke-linejoin:miter;stroke-width:1.5;"/>
   </g>
   <g id="patch_11">
    <path clip-path="url(#p651c949291)" d="M 665.634628 400.597501 
L 681.414593 400.597501 
L 681.414593 379.80647 
L 665.634628 379.80647 
z
" style="fill:#a100ff;stroke:#ffffff;stroke-linejoin:miter;stroke-width:1.5;"/>
   </g>
   <g id="patch_12">
    <path clip-path="url(#p651c949291)" d="M 705.084541 400.597501 
L 720.864506 400.597501 
L 720.864506 382.833733 
L 705.084541 382.833733 
z
" style="fill:#a100ff;stroke:#ffffff;stroke-linejoin:miter;stroke-width:1.5;"/>
   </g>
   <g id="patch_13">
    <path clip-path="url(#p651c949291)" d="M 744.534453 400.597501 
L 760.314419 400.597501 
L 760.314419 386.355018 
L 744.534453 386.355018 
z
" style="fill:#a100ff;stroke:#ffffff;stroke-linejoin:miter;stroke-width:1.5;"/>
   </g>
   <g id="patch_14">
    <path clip-path="url(#p651c949291)" d="M 783.984366 400.597501 
L 799.764331 400.597501 
L 799.764331 387.268936 
L 783.984366 387.268936 
z
" style="fill:#a100ff;stroke:#ffffff;stroke-linejoin:miter;stroke-width:1.5;"/>
   </g>
   <g id="patch_15">
    <path clip-path="url(#p651c949291)" d="M 823.434279 400.597501 
L 839.214244 400.597501 
L 839.214244 66.207394 
L 823.434279 66.207394 
z
" style="fill:#a100ff;stroke:#ffffff;stroke-linejoin:miter;stroke-width:1.5;"/>
   </g>
   <g id="patch_16">
    <path clip-path="url(#p651c949291)" d="M 862.884192 400.597501 
L 878.664157 400.597501 
L 878.664157 400.597501 
L 862.884192 400.597501 
z
" style="fill:#a100ff;stroke:#ffffff;stroke-linejoin:miter;stroke-width:1.5;"/>
   </g>
   <g id="patch_17">
    <path clip-path="url(#p651c949291)" d="M 902.334105 400.597501 
L 918.11407 400.597501 
L 918.11407 400.597501 
L 902.334105 400.597501 
z
" style="fill:#a100ff;stroke:#ffffff;stroke-linejoin:miter;stroke-width:1.5;"/>
   </g>
   <g id="patch_18">
    <path clip-path="url(#p651c949291)" d="M 941.784018 400.597501 
L 957.563983 400.597501 
L 957.563983 400.597501 
L 941.784018 400.597501 
z
" style="fill:#a100ff;stroke:#ffffff;stroke-linejoin:miter;stroke-width:1.5;"/>
   </g>
   <g id="patch_19">
    <path clip-path="url(#p651c949291)" d="M 602.514767 400.597501 
L 618.294732 400.597501 
L 618.294732 358.176606 
L 602.514767 358.176606 
z
" style="fill:#edc600;stroke:#ffffff;stroke-linejoin:miter;stroke-width:1.5;"/>
   </g>
   <g id="patch_20">
    <path clip-path="url(#p651c949291)" d="M 641.96468 400.597501 
L 657.744645 400.597501 
L 657.744645 378.768688 
L 641.96468 378.768688 
z
" style="fill:#edc600;stroke:#ffffff;stroke-linejoin:miter;stroke-width:1.5;"/>
   </g>
   <g id="patch_21">
    <path clip-path="url(#p651c949291)" d="M 681.414593 400.597501 
L 697.194558 400.597501 
L 697.194558 384.762955 
L 681.414593 384.762955 
z
" style="fill:#edc600;stroke:#ffffff;stroke-linejoin:miter;stroke-width:1.5;"/>
   </g>
   <g id="patch_22">
    <path clip-path="url(#p651c949291)" d="M 720.864506 400.597501 
L 736.644471 400.597501 
L 736.644471 385.754826 
L 720.864506 385.754826 
z
" style="fill:#edc600;stroke:#ffffff;stroke-linejoin:miter;stroke-width:1.5;"/>
   </g>
   <g id="patch_23">
    <path clip-path="url(#p651c949291)" d="M 760.314419 400.597501 
L 776.094384 400.597501 
L 776.094384 386.975296 
L 760.314419 386.975296 
z
" style="fill:#edc600;stroke:#ffffff;stroke-linejoin:miter;stroke-width:1.5;"/>
   </g>
   <g id="patch_24">
    <path clip-path="url(#p651c949291)" d="M 799.764331 400.597501 
L 815.544297 400.597501 
L 815.544297 387.586009 
L 799.764331 387.586009 
z
" style="fill:#edc600;stroke:#ffffff;stroke-linejoin:miter;stroke-width:1.5;"/>
   </g>
   <g id="patch_25">
    <path clip-path="url(#p651c949291)" d="M 839.214244 400.597501 
L 854.994209 400.597501 
L 854.994209 43.918036 
L 839.214244 43.918036 
z
" style="fill:#edc600;stroke:#ffffff;stroke-linejoin:miter;stroke-width:1.5;"/>
   </g>
   <g id="patch_26">
    <path clip-path="url(#p651c949291)" d="M 878.664157 400.597501 
L 894.444122 400.597501 
L 894.444122 400.597501 
L 878.664157 400.597501 
z
" style="fill:#edc600;stroke:#ffffff;stroke-linejoin:miter;stroke-width:1.5;"/>
   </g>
   <g id="patch_27">
    <path clip-path="url(#p651c949291)" d="M 918.11407 400.597501 
L 933.894035 400.597501 
L 933.894035 400.597501 
L 918.11407 400.597501 
z
" style="fill:#edc600;stroke:#ffffff;stroke-linejoin:miter;stroke-width:1.5;"/>
   </g>
   <g id="patch_28">
    <path clip-path="url(#p651c949291)" d="M 957.563983 400.597501 
L 973.343948 400.597501 
L 973.343948 400.597501 
L 957.563983 400.597501 
z
" style="fill:#edc600;stroke:#ffffff;stroke-linejoin:miter;stroke-width:1.5;"/>
   </g>
   <g id="patch_29">
    <path d="M 567.404345 400.597501 
L 567.404345 26.084063 
" style="fill:none;stroke:#262626;stroke-linecap:square;stroke-linejoin:miter;stroke-width:1.875;"/>
   </g>
   <g id="patch_30">
    <path d="M 992.674405 400.597501 
L 992.674405 26.084063 
" style="fill:none;stroke:#262626;stroke-linecap:square;stroke-linejoin:miter;stroke-width:1.875;"/>
   </g>
   <g id="patch_31">
    <path d="M 567.404345 400.597501 
L 992.674405 400.597501 
" style="fill:none;stroke:#262626;stroke-linecap:square;stroke-linejoin:miter;stroke-width:1.875;"/>
   </g>
   <g id="patch_32">
    <path d="M 567.404345 26.084063 
L 992.674405 26.084063 
" style="fill:none;stroke:#262626;stroke-linecap:square;stroke-linejoin:miter;stroke-width:1.875;"/>
   </g>
   <g id="text_37">
    <!-- Read length distribution -->
    <g style="fill:#262626;" transform="translate(685.484531 20.084063)scale(0.18 -0.18)">
     <use xlink:href="#ArialMT-82"/>
     <use x="72.216797" xlink:href="#ArialMT-101"/>
     <use x="127.832031" xlink:href="#ArialMT-97"/>
     <use x="183.447266" xlink:href="#ArialMT-100"/>
     <use x="239.0625" xlink:href="#ArialMT-32"/>
     <use x="266.845703" xlink:href="#ArialMT-108"/>
     <use x="289.0625" xlink:href="#ArialMT-101"/>
     <use x="344.677734" xlink:href="#ArialMT-110"/>
     <use x="400.292969" xlink:href="#ArialMT-103"/>
     <use x="455.908203" xlink:href="#ArialMT-116"/>
     <use x="483.691406" xlink:href="#ArialMT-104"/>
     <use x="539.306641" xlink:href="#ArialMT-32"/>
     <use x="567.089844" xlink:href="#ArialMT-100"/>
     <use x="622.705078" xlink:href="#ArialMT-105"/>
     <use x="644.921875" xlink:href="#ArialMT-115"/>
     <use x="694.921875" xlink:href="#ArialMT-116"/>
     <use x="722.705078" xlink:href="#ArialMT-114"/>
     <use x="756.005859" xlink:href="#ArialMT-105"/>
     <use x="778.222656" xlink:href="#ArialMT-98"/>
     <use x="833.837891" xlink:href="#ArialMT-117"/>
     <use x="889.453125" xlink:href="#ArialMT-116"/>
     <use x="917.236328" xlink:href="#ArialMT-105"/>
     <use x="939.453125" xlink:href="#ArialMT-111"/>
     <use x="995.068359" xlink:href="#ArialMT-110"/>
    </g>
   </g>
   <g id="legend_2">
    <g id="patch_33">
     <path d="M 577.204345 93.32875 
L 744.174032 93.32875 
Q 746.974032 93.32875 746.974032 90.52875 
L 746.974032 35.884063 
Q 746.974032 33.084063 744.174032 33.084063 
L 577.204345 33.084063 
Q 574.404345 33.084063 574.404345 35.884063 
L 574.404345 90.52875 
Q 574.404345 93.32875 577.204345 93.32875 
z
" style="fill:#ffffff;opacity:0.8;stroke:#cccccc;stroke-linejoin:miter;stroke-width:1.5;"/>
    </g>
    <g id="text_38">
     <!-- Samples -->
     <g style="fill:#262626;" transform="translate(641.236845 45.96375)scale(0.1 -0.1)">
      <use xlink:href="#ArialMT-83"/>
      <use x="66.699219" xlink:href="#ArialMT-97"/>
      <use x="122.314453" xlink:href="#ArialMT-109"/>
      <use x="205.615234" xlink:href="#ArialMT-112"/>
      <use x="261.230469" xlink:href="#ArialMT-108"/>
      <use x="283.447266" xlink:href="#ArialMT-101"/>
      <use x="339.0625" xlink:href="#ArialMT-115"/>
     </g>
    </g>
    <g id="patch_34">
     <path d="M 580.004345 65.142812 
L 608.004345 65.142812 
L 608.004345 55.342812 
L 580.004345 55.342812 
z
" style="fill:#a100ff;stroke:#ffffff;stroke-linejoin:miter;stroke-width:1.5;"/>
    </g>
    <g id="text_39">
     <!-- example: Modified -->
     <g style="fill:#262626;" transform="translate(619.204345 65.142812)scale(0.14 -0.14)">
      <use xlink:href="#ArialMT-101"/>
      <use x="55.615234" xlink:href="#ArialMT-120"/>
      <use x="105.615234" xlink:href="#ArialMT-97"/>
      <use x="161.230469" xlink:href="#ArialMT-109"/>
      <use x="244.53125" xlink:href="#ArialMT-112"/>
      <use x="300.146484" xlink:href="#ArialMT-108"/>
      <use x="322.363281" xlink:href="#ArialMT-101"/>
      <use x="377.978516" xlink:href="#ArialMT-58"/>
      <use x="405.761719" xlink:href="#ArialMT-32"/>
      <use x="433.544922" xlink:href="#ArialMT-77"/>
      <use x="516.845703" xlink:href="#ArialMT-111"/>
      <use x="572.460938" xlink:href="#ArialMT-100"/>
      <use x="628.076172" xlink:href="#ArialMT-105"/>
      <use x="650.292969" xlink:href="#ArialMT-102"/>
      <use x="678.076172" xlink:href="#ArialMT-105"/>
      <use x="700.292969" xlink:href="#ArialMT-101"/>
      <use x="755.908203" xlink:href="#ArialMT-100"/>
     </g>
    </g>
    <g id="patch_35">
     <path d="M 580.004345 84.94625 
L 608.004345 84.94625 
L 608.004345 75.14625 
L 580.004345 75.14625 
z
" style="fill:#edc600;stroke:#ffffff;stroke-linejoin:miter;stroke-width:1.5;"/>
    </g>
    <g id="text_40">
     <!-- example: Untreated -->
     <g style="fill:#262626;" transform="translate(619.204345 84.94625)scale(0.14 -0.14)">
      <use xlink:href="#ArialMT-101"/>
      <use x="55.615234" xlink:href="#ArialMT-120"/>
      <use x="105.615234" xlink:href="#ArialMT-97"/>
      <use x="161.230469" xlink:href="#ArialMT-109"/>
      <use x="244.53125" xlink:href="#ArialMT-112"/>
      <use x="300.146484" xlink:href="#ArialMT-108"/>
      <use x="322.363281" xlink:href="#ArialMT-101"/>
      <use x="377.978516" xlink:href="#ArialMT-58"/>
      <use x="405.761719" xlink:href="#ArialMT-32"/>
      <use x="433.544922" xlink:href="#ArialMT-85"/>
      <use x="505.761719" xlink:href="#ArialMT-110"/>
      <use x="561.376953" xlink:href="#ArialMT-116"/>
      <use x="589.160156" xlink:href="#ArialMT-114"/>
      <use x="622.460938" xlink:href="#ArialMT-101"/>
      <use x="678.076172" xlink:href="#ArialMT-97"/>
      <use x="733.691406" xlink:href="#ArialMT-116"/>
      <use x="761.474609" xlink:href="#ArialMT-101"/>
      <use x="817.089844" xlink:href="#ArialMT-100"/>
     </g>
    </g>
   </g>
  </g>
  <g id="axes_3">
   <g id="patch_36">
    <path d="M 1071.281814 400.597501 
L 1496.551875 400.597501 
L 1496.551875 26.084063 
L 1071.281814 26.084063 
z
" style="fill:#ffffff;"/>
   </g>
   <g id="matplotlib.axis_5">
    <g id="xtick_16">
     <g id="line2d_35">
      <g>
       <use style="fill:#262626;stroke:#262626;stroke-width:1.875;" x="1283.916845" xlink:href="#me34bade861" y="400.597501"/>
      </g>
     </g>
     <g id="text_41">
      <!-- example -->
      <g style="fill:#262626;" transform="translate(1252.735712 424.907891)scale(0.165 -0.165)">
       <use xlink:href="#ArialMT-101"/>
       <use x="55.615234" xlink:href="#ArialMT-120"/>
       <use x="105.615234" xlink:href="#ArialMT-97"/>
       <use x="161.230469" xlink:href="#ArialMT-109"/>
       <use x="244.53125" xlink:href="#ArialMT-112"/>
       <use x="300.146484" xlink:href="#ArialMT-108"/>
       <use x="322.363281" xlink:href="#ArialMT-101"/>
      </g>
     </g>
    </g>
    <g id="text_42">
     <!-- Sample -->
     <g style="fill:#262626;" transform="translate(1253.402626 445.290704)scale(0.18 -0.18)">
      <use xlink:href="#ArialMT-83"/>
      <use x="66.699219" xlink:href="#ArialMT-97"/>
      <use x="122.314453" xlink:href="#ArialMT-109"/>
      <use x="205.615234" xlink:href="#ArialMT-112"/>
      <use x="261.230469" xlink:href="#ArialMT-108"/>
      <use x="283.447266" xlink:href="#ArialMT-101"/>
     </g>
    </g>
   </g>
   <g id="matplotlib.axis_6">
    <g id="ytick_14">
     <g id="line2d_36">
      <g>
       <use style="fill:#262626;stroke:#262626;stroke-width:1.875;" x="1071.281814" xlink:href="#me53c32c96f" y="363.017574"/>
      </g>
     </g>
     <g id="text_43">
      <!-- $\mathdefault{10^{-3}}$ -->
      <defs>
       <path d="M 52.828125 31.203125 
L 5.5625 31.203125 
L 5.5625 39.40625 
L 52.828125 39.40625 
z
" id="ArialMT-8722"/>
      </defs>
      <g style="fill:#262626;" transform="translate(1026.111814 371.525387)scale(0.165 -0.165)">
       <use transform="translate(0 0.99375)" xlink:href="#ArialMT-49"/>
       <use transform="translate(55.615234 0.99375)" xlink:href="#ArialMT-48"/>
       <use transform="translate(112.972813 70.6875)scale(0.7)" xlink:href="#ArialMT-8722"/>
       <use transform="translate(153.851719 70.6875)scale(0.7)" xlink:href="#ArialMT-51"/>
      </g>
     </g>
    </g>
    <g id="ytick_15">
     <g id="line2d_37">
      <g>
       <use style="fill:#262626;stroke:#262626;stroke-width:1.875;" x="1071.281814" xlink:href="#me53c32c96f" y="238.179762"/>
      </g>
     </g>
     <g id="text_44">
      <!-- $\mathdefault{10^{-2}}$ -->
      <g style="fill:#262626;" transform="translate(1026.111814 246.687574)scale(0.165 -0.165)">
       <use transform="translate(0 0.99375)" xlink:href="#ArialMT-49"/>
       <use transform="translate(55.615234 0.99375)" xlink:href="#ArialMT-48"/>
       <use transform="translate(112.972813 70.6875)scale(0.7)" xlink:href="#ArialMT-8722"/>
       <use transform="translate(153.851719 70.6875)scale(0.7)" xlink:href="#ArialMT-50"/>
      </g>
     </g>
    </g>
    <g id="ytick_16">
     <g id="line2d_38">
      <g>
       <use style="fill:#262626;stroke:#262626;stroke-width:1.875;" x="1071.281814" xlink:href="#me53c32c96f" y="113.341949"/>
      </g>
     </g>
     <g id="text_45">
      <!-- $\mathdefault{10^{-1}}$ -->
      <g style="fill:#262626;" transform="translate(1026.111814 121.849761)scale(0.165 -0.165)">
       <use transform="translate(0 0.99375)" xlink:href="#ArialMT-49"/>
       <use transform="translate(55.615234 0.99375)" xlink:href="#ArialMT-48"/>
       <use transform="translate(112.972813 70.6875)scale(0.7)" xlink:href="#ArialMT-8722"/>
       <use transform="translate(153.851719 70.6875)scale(0.7)" xlink:href="#ArialMT-49"/>
      </g>
     </g>
    </g>
    <g id="ytick_17">
     <g id="line2d_39">
      <defs>
       <path d="M 0 0 
L -6 0 
" id="m51cec26ce2" style="stroke:#262626;stroke-width:1.5;"/>
      </defs>
      <g>
       <use style="fill:#262626;stroke:#262626;stroke-width:1.5;" x="1071.281814" xlink:href="#m51cec26ce2" y="400.597501"/>
      </g>
     </g>
    </g>
    <g id="ytick_18">
     <g id="line2d_40">
      <g>
       <use style="fill:#262626;stroke:#262626;stroke-width:1.5;" x="1071.281814" xlink:href="#m51cec26ce2" y="390.712687"/>
      </g>
     </g>
    </g>
    <g id="ytick_19">
     <g id="line2d_41">
      <g>
       <use style="fill:#262626;stroke:#262626;stroke-width:1.5;" x="1071.281814" xlink:href="#m51cec26ce2" y="382.355196"/>
      </g>
     </g>
    </g>
    <g id="ytick_20">
     <g id="line2d_42">
      <g>
       <use style="fill:#262626;stroke:#262626;stroke-width:1.5;" x="1071.281814" xlink:href="#m51cec26ce2" y="375.115608"/>
      </g>
     </g>
    </g>
    <g id="ytick_21">
     <g id="line2d_43">
      <g>
       <use style="fill:#262626;stroke:#262626;stroke-width:1.5;" x="1071.281814" xlink:href="#m51cec26ce2" y="368.729839"/>
      </g>
     </g>
    </g>
    <g id="ytick_22">
     <g id="line2d_44">
      <g>
       <use style="fill:#262626;stroke:#262626;stroke-width:1.5;" x="1071.281814" xlink:href="#m51cec26ce2" y="325.437648"/>
      </g>
     </g>
    </g>
    <g id="ytick_23">
     <g id="line2d_45">
      <g>
       <use style="fill:#262626;stroke:#262626;stroke-width:1.5;" x="1071.281814" xlink:href="#m51cec26ce2" y="303.4548"/>
      </g>
     </g>
    </g>
    <g id="ytick_24">
     <g id="line2d_46">
      <g>
       <use style="fill:#262626;stroke:#262626;stroke-width:1.5;" x="1071.281814" xlink:href="#m51cec26ce2" y="287.857722"/>
      </g>
     </g>
    </g>
    <g id="ytick_25">
     <g id="line2d_47">
      <g>
       <use style="fill:#262626;stroke:#262626;stroke-width:1.5;" x="1071.281814" xlink:href="#m51cec26ce2" y="275.759688"/>
      </g>
     </g>
    </g>
    <g id="ytick_26">
     <g id="line2d_48">
      <g>
       <use style="fill:#262626;stroke:#262626;stroke-width:1.5;" x="1071.281814" xlink:href="#m51cec26ce2" y="265.874874"/>
      </g>
     </g>
    </g>
    <g id="ytick_27">
     <g id="line2d_49">
      <g>
       <use style="fill:#262626;stroke:#262626;stroke-width:1.5;" x="1071.281814" xlink:href="#m51cec26ce2" y="257.517384"/>
      </g>
     </g>
    </g>
    <g id="ytick_28">
     <g id="line2d_50">
      <g>
       <use style="fill:#262626;stroke:#262626;stroke-width:1.5;" x="1071.281814" xlink:href="#m51cec26ce2" y="250.277796"/>
      </g>
     </g>
    </g>
    <g id="ytick_29">
     <g id="line2d_51">
      <g>
       <use style="fill:#262626;stroke:#262626;stroke-width:1.5;" x="1071.281814" xlink:href="#m51cec26ce2" y="243.892027"/>
      </g>
     </g>
    </g>
    <g id="ytick_30">
     <g id="line2d_52">
      <g>
       <use style="fill:#262626;stroke:#262626;stroke-width:1.5;" x="1071.281814" xlink:href="#m51cec26ce2" y="200.599835"/>
      </g>
     </g>
    </g>
    <g id="ytick_31">
     <g id="line2d_53">
      <g>
       <use style="fill:#262626;stroke:#262626;stroke-width:1.5;" x="1071.281814" xlink:href="#m51cec26ce2" y="178.616988"/>
      </g>
     </g>
    </g>
    <g id="ytick_32">
     <g id="line2d_54">
      <g>
       <use style="fill:#262626;stroke:#262626;stroke-width:1.5;" x="1071.281814" xlink:href="#m51cec26ce2" y="163.019909"/>
      </g>
     </g>
    </g>
    <g id="ytick_33">
     <g id="line2d_55">
      <g>
       <use style="fill:#262626;stroke:#262626;stroke-width:1.5;" x="1071.281814" xlink:href="#m51cec26ce2" y="150.921875"/>
      </g>
     </g>
    </g>
    <g id="ytick_34">
     <g id="line2d_56">
      <g>
       <use style="fill:#262626;stroke:#262626;stroke-width:1.5;" x="1071.281814" xlink:href="#m51cec26ce2" y="141.037062"/>
      </g>
     </g>
    </g>
    <g id="ytick_35">
     <g id="line2d_57">
      <g>
       <use style="fill:#262626;stroke:#262626;stroke-width:1.5;" x="1071.281814" xlink:href="#m51cec26ce2" y="132.679571"/>
      </g>
     </g>
    </g>
    <g id="ytick_36">
     <g id="line2d_58">
      <g>
       <use style="fill:#262626;stroke:#262626;stroke-width:1.5;" x="1071.281814" xlink:href="#m51cec26ce2" y="125.439983"/>
      </g>
     </g>
    </g>
    <g id="ytick_37">
     <g id="line2d_59">
      <g>
       <use style="fill:#262626;stroke:#262626;stroke-width:1.5;" x="1071.281814" xlink:href="#m51cec26ce2" y="119.054214"/>
      </g>
     </g>
    </g>
    <g id="ytick_38">
     <g id="line2d_60">
      <g>
       <use style="fill:#262626;stroke:#262626;stroke-width:1.5;" x="1071.281814" xlink:href="#m51cec26ce2" y="75.762023"/>
      </g>
     </g>
    </g>
    <g id="ytick_39">
     <g id="line2d_61">
      <g>
       <use style="fill:#262626;stroke:#262626;stroke-width:1.5;" x="1071.281814" xlink:href="#m51cec26ce2" y="53.779175"/>
      </g>
     </g>
    </g>
    <g id="ytick_40">
     <g id="line2d_62">
      <g>
       <use style="fill:#262626;stroke:#262626;stroke-width:1.5;" x="1071.281814" xlink:href="#m51cec26ce2" y="38.182097"/>
      </g>
     </g>
    </g>
    <g id="ytick_41">
     <g id="line2d_63">
      <g>
       <use style="fill:#262626;stroke:#262626;stroke-width:1.5;" x="1071.281814" xlink:href="#m51cec26ce2" y="26.084063"/>
      </g>
     </g>
    </g>
    <g id="text_46">
     <!-- Mutation Rate -->
     <g style="fill:#262626;" transform="translate(1018.534314 269.367188)rotate(-90)scale(0.18 -0.18)">
      <use xlink:href="#ArialMT-77"/>
      <use x="83.300781" xlink:href="#ArialMT-117"/>
      <use x="138.916016" xlink:href="#ArialMT-116"/>
      <use x="166.699219" xlink:href="#ArialMT-97"/>
      <use x="222.314453" xlink:href="#ArialMT-116"/>
      <use x="250.097656" xlink:href="#ArialMT-105"/>
      <use x="272.314453" xlink:href="#ArialMT-111"/>
      <use x="327.929688" xlink:href="#ArialMT-110"/>
      <use x="383.544922" xlink:href="#ArialMT-32"/>
      <use x="411.328125" xlink:href="#ArialMT-82"/>
      <use x="483.544922" xlink:href="#ArialMT-97"/>
      <use x="539.160156" xlink:href="#ArialMT-116"/>
      <use x="566.943359" xlink:href="#ArialMT-101"/>
     </g>
    </g>
   </g>
   <g id="patch_37">
    <path clip-path="url(#p353d198ecb)" d="M 1115.5099 275.17729 
L 1282.215764 275.17729 
L 1282.215764 199.808656 
L 1115.5099 199.808656 
L 1115.5099 275.17729 
z
" style="fill:#9920df;stroke:#474747;stroke-linejoin:miter;stroke-width:2.25;"/>
   </g>
   <g id="patch_38">
    <path clip-path="url(#p353d198ecb)" d="M 1285.617925 343.644723 
L 1452.323789 343.644723 
L 1452.323789 286.373714 
L 1285.617925 286.373714 
L 1285.617925 343.644723 
z
" style="fill:#cfb21e;stroke:#474747;stroke-linejoin:miter;stroke-width:2.25;"/>
   </g>
   <g id="patch_39">
    <path clip-path="url(#p353d198ecb)" d="M 1283.916845 124826.31681 
L 1283.916845 124826.31681 
L 1283.916845 124826.31681 
L 1283.916845 124826.31681 
z
" style="fill:#9920df;stroke:#474747;stroke-linejoin:miter;stroke-width:1.125;"/>
   </g>
   <g id="patch_40">
    <path clip-path="url(#p353d198ecb)" d="M 1283.916845 124826.31681 
L 1283.916845 124826.31681 
L 1283.916845 124826.31681 
L 1283.916845 124826.31681 
z
" style="fill:#cfb21e;stroke:#474747;stroke-linejoin:miter;stroke-width:1.125;"/>
   </g>
   <g id="line2d_64">
    <path clip-path="url(#p353d198ecb)" d="M 1198.862832 275.17729 
L 1198.862832 495.453458 
" style="fill:none;stroke:#474747;stroke-linecap:round;stroke-width:2.25;"/>
   </g>
   <g id="line2d_65">
    <path clip-path="url(#p353d198ecb)" d="M 1198.862832 199.808656 
L 1198.862832 159.823711 
" style="fill:none;stroke:#474747;stroke-linecap:round;stroke-width:2.25;"/>
   </g>
   <g id="line2d_66">
    <path clip-path="url(#p353d198ecb)" style="fill:none;stroke:#474747;stroke-linecap:round;stroke-width:2.25;"/>
   </g>
   <g id="line2d_67">
    <path clip-path="url(#p353d198ecb)" d="M 1157.186366 159.823711 
L 1240.539298 159.823711 
" style="fill:none;stroke:#474747;stroke-linecap:round;stroke-width:2.25;"/>
   </g>
   <g id="line2d_68">
    <defs>
     <path d="M 0 3.535534 
L 2.12132 0 
L 0 -3.535534 
L -2.12132 0 
z
" id="m4a609041ff" style="stroke:#474747;stroke-linejoin:miter;"/>
    </defs>
    <g clip-path="url(#p353d198ecb)">
     <use style="fill:#474747;stroke:#474747;stroke-linejoin:miter;" x="1198.862832" xlink:href="#m4a609041ff" y="146.694134"/>
     <use style="fill:#474747;stroke:#474747;stroke-linejoin:miter;" x="1198.862832" xlink:href="#m4a609041ff" y="144.815376"/>
     <use style="fill:#474747;stroke:#474747;stroke-linejoin:miter;" x="1198.862832" xlink:href="#m4a609041ff" y="130.894581"/>
     <use style="fill:#474747;stroke:#474747;stroke-linejoin:miter;" x="1198.862832" xlink:href="#m4a609041ff" y="109.842735"/>
     <use style="fill:#474747;stroke:#474747;stroke-linejoin:miter;" x="1198.862832" xlink:href="#m4a609041ff" y="158.74079"/>
     <use style="fill:#474747;stroke:#474747;stroke-linejoin:miter;" x="1198.862832" xlink:href="#m4a609041ff" y="133.54539"/>
     <use style="fill:#474747;stroke:#474747;stroke-linejoin:miter;" x="1198.862832" xlink:href="#m4a609041ff" y="141.15828"/>
     <use style="fill:#474747;stroke:#474747;stroke-linejoin:miter;" x="1198.862832" xlink:href="#m4a609041ff" y="108.691597"/>
     <use style="fill:#474747;stroke:#474747;stroke-linejoin:miter;" x="1198.862832" xlink:href="#m4a609041ff" y="155.311855"/>
     <use style="fill:#474747;stroke:#474747;stroke-linejoin:miter;" x="1198.862832" xlink:href="#m4a609041ff" y="120.022438"/>
     <use style="fill:#474747;stroke:#474747;stroke-linejoin:miter;" x="1198.862832" xlink:href="#m4a609041ff" y="126.708461"/>
     <use style="fill:#474747;stroke:#474747;stroke-linejoin:miter;" x="1198.862832" xlink:href="#m4a609041ff" y="146.883024"/>
     <use style="fill:#474747;stroke:#474747;stroke-linejoin:miter;" x="1198.862832" xlink:href="#m4a609041ff" y="115.339862"/>
     <use style="fill:#474747;stroke:#474747;stroke-linejoin:miter;" x="1198.862832" xlink:href="#m4a609041ff" y="134.234429"/>
     <use style="fill:#474747;stroke:#474747;stroke-linejoin:miter;" x="1198.862832" xlink:href="#m4a609041ff" y="150.729208"/>
     <use style="fill:#474747;stroke:#474747;stroke-linejoin:miter;" x="1198.862832" xlink:href="#m4a609041ff" y="147.982101"/>
     <use style="fill:#474747;stroke:#474747;stroke-linejoin:miter;" x="1198.862832" xlink:href="#m4a609041ff" y="152.62359"/>
     <use style="fill:#474747;stroke:#474747;stroke-linejoin:miter;" x="1198.862832" xlink:href="#m4a609041ff" y="102.224725"/>
     <use style="fill:#474747;stroke:#474747;stroke-linejoin:miter;" x="1198.862832" xlink:href="#m4a609041ff" y="130.503292"/>
     <use style="fill:#474747;stroke:#474747;stroke-linejoin:miter;" x="1198.862832" xlink:href="#m4a609041ff" y="116.385471"/>
     <use style="fill:#474747;stroke:#474747;stroke-linejoin:miter;" x="1198.862832" xlink:href="#m4a609041ff" y="108.143042"/>
     <use style="fill:#474747;stroke:#474747;stroke-linejoin:miter;" x="1198.862832" xlink:href="#m4a609041ff" y="149.634992"/>
     <use style="fill:#474747;stroke:#474747;stroke-linejoin:miter;" x="1198.862832" xlink:href="#m4a609041ff" y="107.415465"/>
     <use style="fill:#474747;stroke:#474747;stroke-linejoin:miter;" x="1198.862832" xlink:href="#m4a609041ff" y="157.979601"/>
     <use style="fill:#474747;stroke:#474747;stroke-linejoin:miter;" x="1198.862832" xlink:href="#m4a609041ff" y="144.225674"/>
     <use style="fill:#474747;stroke:#474747;stroke-linejoin:miter;" x="1198.862832" xlink:href="#m4a609041ff" y="127.297168"/>
     <use style="fill:#474747;stroke:#474747;stroke-linejoin:miter;" x="1198.862832" xlink:href="#m4a609041ff" y="157.877186"/>
     <use style="fill:#474747;stroke:#474747;stroke-linejoin:miter;" x="1198.862832" xlink:href="#m4a609041ff" y="143.295481"/>
     <use style="fill:#474747;stroke:#474747;stroke-linejoin:miter;" x="1198.862832" xlink:href="#m4a609041ff" y="126.410277"/>
    </g>
   </g>
   <g id="line2d_69">
    <path clip-path="url(#p353d198ecb)" d="M 1368.970857 343.644723 
L 1368.970857 495.453458 
" style="fill:none;stroke:#474747;stroke-linecap:round;stroke-width:2.25;"/>
   </g>
   <g id="line2d_70">
    <path clip-path="url(#p353d198ecb)" d="M 1368.970857 286.373714 
L 1368.970857 250.277796 
" style="fill:none;stroke:#474747;stroke-linecap:round;stroke-width:2.25;"/>
   </g>
   <g id="line2d_71">
    <path clip-path="url(#p353d198ecb)" style="fill:none;stroke:#474747;stroke-linecap:round;stroke-width:2.25;"/>
   </g>
   <g id="line2d_72">
    <path clip-path="url(#p353d198ecb)" d="M 1327.294391 250.277796 
L 1410.647323 250.277796 
" style="fill:none;stroke:#474747;stroke-linecap:round;stroke-width:2.25;"/>
   </g>
   <g id="line2d_73">
    <g clip-path="url(#p353d198ecb)">
     <use style="fill:#474747;stroke:#474747;stroke-linejoin:miter;" x="1368.970857" xlink:href="#m4a609041ff" y="221.139574"/>
     <use style="fill:#474747;stroke:#474747;stroke-linejoin:miter;" x="1368.970857" xlink:href="#m4a609041ff" y="238.120156"/>
     <use style="fill:#474747;stroke:#474747;stroke-linejoin:miter;" x="1368.970857" xlink:href="#m4a609041ff" y="247.697152"/>
     <use style="fill:#474747;stroke:#474747;stroke-linejoin:miter;" x="1368.970857" xlink:href="#m4a609041ff" y="234.918434"/>
     <use style="fill:#474747;stroke:#474747;stroke-linejoin:miter;" x="1368.970857" xlink:href="#m4a609041ff" y="229.334971"/>
     <use style="fill:#474747;stroke:#474747;stroke-linejoin:miter;" x="1368.970857" xlink:href="#m4a609041ff" y="207.376692"/>
     <use style="fill:#474747;stroke:#474747;stroke-linejoin:miter;" x="1368.970857" xlink:href="#m4a609041ff" y="228.222708"/>
     <use style="fill:#474747;stroke:#474747;stroke-linejoin:miter;" x="1368.970857" xlink:href="#m4a609041ff" y="195.548413"/>
     <use style="fill:#474747;stroke:#474747;stroke-linejoin:miter;" x="1368.970857" xlink:href="#m4a609041ff" y="249.337215"/>
     <use style="fill:#474747;stroke:#474747;stroke-linejoin:miter;" x="1368.970857" xlink:href="#m4a609041ff" y="236.629853"/>
     <use style="fill:#474747;stroke:#474747;stroke-linejoin:miter;" x="1368.970857" xlink:href="#m4a609041ff" y="248.563486"/>
     <use style="fill:#474747;stroke:#474747;stroke-linejoin:miter;" x="1368.970857" xlink:href="#m4a609041ff" y="163.158338"/>
     <use style="fill:#474747;stroke:#474747;stroke-linejoin:miter;" x="1368.970857" xlink:href="#m4a609041ff" y="240.409927"/>
     <use style="fill:#474747;stroke:#474747;stroke-linejoin:miter;" x="1368.970857" xlink:href="#m4a609041ff" y="232.151794"/>
     <use style="fill:#474747;stroke:#474747;stroke-linejoin:miter;" x="1368.970857" xlink:href="#m4a609041ff" y="234.816428"/>
     <use style="fill:#474747;stroke:#474747;stroke-linejoin:miter;" x="1368.970857" xlink:href="#m4a609041ff" y="213.17435"/>
     <use style="fill:#474747;stroke:#474747;stroke-linejoin:miter;" x="1368.970857" xlink:href="#m4a609041ff" y="212.684317"/>
     <use style="fill:#474747;stroke:#474747;stroke-linejoin:miter;" x="1368.970857" xlink:href="#m4a609041ff" y="243.275074"/>
     <use style="fill:#474747;stroke:#474747;stroke-linejoin:miter;" x="1368.970857" xlink:href="#m4a609041ff" y="224.745099"/>
     <use style="fill:#474747;stroke:#474747;stroke-linejoin:miter;" x="1368.970857" xlink:href="#m4a609041ff" y="234.385029"/>
     <use style="fill:#474747;stroke:#474747;stroke-linejoin:miter;" x="1368.970857" xlink:href="#m4a609041ff" y="221.242617"/>
     <use style="fill:#474747;stroke:#474747;stroke-linejoin:miter;" x="1368.970857" xlink:href="#m4a609041ff" y="231.750637"/>
     <use style="fill:#474747;stroke:#474747;stroke-linejoin:miter;" x="1368.970857" xlink:href="#m4a609041ff" y="242.476934"/>
     <use style="fill:#474747;stroke:#474747;stroke-linejoin:miter;" x="1368.970857" xlink:href="#m4a609041ff" y="245.992414"/>
     <use style="fill:#474747;stroke:#474747;stroke-linejoin:miter;" x="1368.970857" xlink:href="#m4a609041ff" y="243.28103"/>
     <use style="fill:#474747;stroke:#474747;stroke-linejoin:miter;" x="1368.970857" xlink:href="#m4a609041ff" y="234.780771"/>
    </g>
   </g>
   <g id="line2d_74">
    <path clip-path="url(#p353d198ecb)" d="M 1115.5099 237.31383 
L 1282.215764 237.31383 
" style="fill:none;stroke:#474747;stroke-linecap:round;stroke-width:2.25;"/>
   </g>
   <g id="line2d_75">
    <path clip-path="url(#p353d198ecb)" d="M 1285.617925 316.579043 
L 1452.323789 316.579043 
" style="fill:none;stroke:#474747;stroke-linecap:round;stroke-width:2.25;"/>
   </g>
   <g id="patch_41">
    <path d="M 1071.281814 400.597501 
L 1071.281814 26.084063 
" style="fill:none;stroke:#262626;stroke-linecap:square;stroke-linejoin:miter;stroke-width:1.875;"/>
   </g>
   <g id="patch_42">
    <path d="M 1496.551875 400.597501 
L 1496.551875 26.084063 
" style="fill:none;stroke:#262626;stroke-linecap:square;stroke-linejoin:miter;stroke-width:1.875;"/>
   </g>
   <g id="patch_43">
    <path d="M 1071.281814 400.597501 
L 1496.551875 400.597501 
" style="fill:none;stroke:#262626;stroke-linecap:square;stroke-linejoin:miter;stroke-width:1.875;"/>
   </g>
   <g id="patch_44">
    <path d="M 1071.281814 26.084063 
L 1496.551875 26.084063 
" style="fill:none;stroke:#262626;stroke-linecap:square;stroke-linejoin:miter;stroke-width:1.875;"/>
   </g>
   <g id="legend_3">
    <g id="patch_45">
     <path d="M 1348.5675 98.053891 
L 1486.751875 98.053891 
Q 1489.551875 98.053891 1489.551875 95.253891 
L 1489.551875 35.884063 
Q 1489.551875 33.084063 1486.751875 33.084063 
L 1348.5675 33.084063 
Q 1345.7675 33.084063 1345.7675 35.884063 
L 1345.7675 95.253891 
Q 1345.7675 98.053891 1348.5675 98.053891 
z
" style="fill:#ffffff;opacity:0.8;stroke:#cccccc;stroke-linejoin:miter;stroke-width:1.5;"/>
    </g>
    <g id="text_47">
     <!-- Rate -->
     <g style="fill:#262626;" transform="translate(1401.501453 49.635516)scale(0.153 -0.153)">
      <use xlink:href="#ArialMT-82"/>
      <use x="72.216797" xlink:href="#ArialMT-97"/>
      <use x="127.832031" xlink:href="#ArialMT-116"/>
      <use x="155.615234" xlink:href="#ArialMT-101"/>
     </g>
    </g>
    <g id="patch_46">
     <path d="M 1351.3675 69.867953 
L 1379.3675 69.867953 
L 1379.3675 60.067953 
L 1351.3675 60.067953 
z
" style="fill:#9920df;stroke:#474747;stroke-linejoin:miter;stroke-width:1.125;"/>
    </g>
    <g id="text_48">
     <!-- Modified_rate -->
     <defs>
      <path d="M -1.515625 -19.875 
L -1.515625 -13.53125 
L 56.734375 -13.53125 
L 56.734375 -19.875 
z
" id="ArialMT-95"/>
     </defs>
     <g style="fill:#262626;" transform="translate(1390.5675 69.867953)scale(0.14 -0.14)">
      <use xlink:href="#ArialMT-77"/>
      <use x="83.300781" xlink:href="#ArialMT-111"/>
      <use x="138.916016" xlink:href="#ArialMT-100"/>
      <use x="194.53125" xlink:href="#ArialMT-105"/>
      <use x="216.748047" xlink:href="#ArialMT-102"/>
      <use x="244.53125" xlink:href="#ArialMT-105"/>
      <use x="266.748047" xlink:href="#ArialMT-101"/>
      <use x="322.363281" xlink:href="#ArialMT-100"/>
      <use x="377.978516" xlink:href="#ArialMT-95"/>
      <use x="433.59375" xlink:href="#ArialMT-114"/>
      <use x="466.894531" xlink:href="#ArialMT-97"/>
      <use x="522.509766" xlink:href="#ArialMT-116"/>
      <use x="550.292969" xlink:href="#ArialMT-101"/>
     </g>
    </g>
    <g id="patch_47">
     <path d="M 1351.3675 89.671391 
L 1379.3675 89.671391 
L 1379.3675 79.871391 
L 1351.3675 79.871391 
z
" style="fill:#cfb21e;stroke:#474747;stroke-linejoin:miter;stroke-width:1.125;"/>
    </g>
    <g id="text_49">
     <!-- Untreated_rate -->
     <g style="fill:#262626;" transform="translate(1390.5675 89.671391)scale(0.14 -0.14)">
      <use xlink:href="#ArialMT-85"/>
      <use x="72.216797" xlink:href="#ArialMT-110"/>
      <use x="127.832031" xlink:href="#ArialMT-116"/>
      <use x="155.615234" xlink:href="#ArialMT-114"/>
      <use x="188.916016" xlink:href="#ArialMT-101"/>
      <use x="244.53125" xlink:href="#ArialMT-97"/>
      <use x="300.146484" xlink:href="#ArialMT-116"/>
      <use x="327.929688" xlink:href="#ArialMT-101"/>
      <use x="383.544922" xlink:href="#ArialMT-100"/>
      <use x="439.160156" xlink:href="#ArialMT-95"/>
      <use x="494.775391" xlink:href="#ArialMT-114"/>
      <use x="528.076172" xlink:href="#ArialMT-97"/>
      <use x="583.691406" xlink:href="#ArialMT-116"/>
      <use x="611.474609" xlink:href="#ArialMT-101"/>
     </g>
    </g>
   </g>
  </g>
 </g>
 <defs>
  <clipPath id="pa6d59a057b">
   <rect height="374.513438" width="425.270061" x="63.526875" y="26.084063"/>
  </clipPath>
  <clipPath id="p651c949291">
   <rect height="374.513438" width="425.270061" x="567.404345" y="26.084063"/>
  </clipPath>
  <clipPath id="p353d198ecb">
   <rect height="374.513438" width="425.270061" x="1071.281814" y="26.084063"/>
  </clipPath>
 </defs>
</svg>
